<svg width="43" height="40" viewBox="0 0 43 40" fill="none" xmlns="http://www.w3.org/2000/svg">
<path fill-rule="evenodd" clip-rule="evenodd" d="M25.9314 23.2693H31.0632C31.466 23.2693 31.7617 23.5651 31.7617 23.9673V29.094C31.7617 29.4963 31.466 29.7983 31.0632 29.7983H25.9314C25.5285 29.7983 25.2328 29.4963 25.2328 29.094V23.9673C25.2328 23.5651 25.5285 23.2693 25.9314 23.2693ZM25.9314 21.7747C24.7308 21.7747 23.7393 22.7639 23.7393 23.9668V29.0935C23.7393 30.2963 24.7308 31.2907 25.9314 31.2907H31.0632C32.266 31.2907 33.2553 30.2957 33.2553 29.0935V23.9668C33.2553 22.7639 32.266 21.7747 31.0632 21.7747H25.9314Z" fill="#906E50"/>
<path fill-rule="evenodd" clip-rule="evenodd" d="M5.82013 3.76249H8.90687C9.16208 3.76249 9.35025 3.9501 9.35025 4.21657V9.19288L5.37337 12.3827V4.21657C5.37337 3.9501 5.56492 3.76249 5.82013 3.76249ZM21.0397 1.71969L39.8041 16.7754C40.8661 17.6266 40.7968 18.6503 40.2881 19.3077C39.6391 20.1432 38.6594 20.0204 38.0205 19.5072L21.5062 6.27121C21.2335 6.05431 20.8459 6.05431 20.5733 6.27121L4.05958 19.5077C3.1762 20.2176 2.41339 20.0069 1.79424 19.3083C1.23932 18.6858 1.21622 17.6266 2.2748 16.7754L21.0397 1.71969ZM20.5733 0.185051L10.8376 7.99852V4.21657C10.8376 3.15743 9.96602 2.27405 8.90631 2.27405H5.81957C4.75648 2.27405 3.88493 3.15743 3.88493 4.21657V13.5771L1.3441 15.6165C-0.254759 16.8987 -0.313913 18.9027 0.572841 20.1652C1.01847 20.7962 1.69058 21.2734 2.49058 21.4091C3.2962 21.5443 4.19592 21.3094 4.99084 20.6728L21.0392 7.80641L37.0887 20.6728C37.8841 21.3089 38.7855 21.5443 39.5867 21.4091C40.39 21.2739 41.0621 20.7962 41.5055 20.1652C42.3912 18.9032 42.3354 16.8987 40.7365 15.6165L21.5062 0.185051C21.1688 -0.0842427 20.855 -0.0380459 20.5733 0.185051Z" fill="#906E50"/>
<path d="M15.538 21.7781C12.8817 21.7781 10.7138 23.9347 10.7138 26.5876V38.5064H5.37299V23.4682C5.39384 23.0434 5.05581 22.6845 4.63159 22.6845C4.20342 22.6845 3.86483 23.0429 3.88568 23.4682V39.2484C3.88343 39.6625 4.21807 39.9965 4.63159 39.9994H11.4625C11.876 39.9965 12.2073 39.6625 12.2073 39.2484V26.5876C12.2073 24.7392 13.6805 23.2688 15.538 23.2688C17.3977 23.2688 18.8653 24.7386 18.8653 26.5876V39.2489C18.8619 39.6658 19.1999 39.9999 19.6123 39.9999H37.45C37.8635 39.9971 38.1959 39.663 38.1959 39.2489V23.4688C38.2156 23.044 37.8759 22.6851 37.45 22.6851C37.0252 22.6851 36.6843 23.0434 36.7052 23.4688V38.507H20.3582V26.5876C20.3582 23.9347 18.196 21.7781 15.538 21.7781Z" fill="#906E50"/>
</svg>
