<svg width="50" height="50" viewBox="0 0 50 50" fill="none" xmlns="http://www.w3.org/2000/svg">
<circle cx="25" cy="25" r="24" stroke="white" stroke-width="2"/>
<path fill-rule="evenodd" clip-rule="evenodd" d="M39.9456 25.1496L35.4675 29.938C35.3902 30.0207 35.2649 30.0207 35.1876 29.938L34.348 29.0402C34.2707 28.9575 34.2707 28.8236 34.348 28.7409L37.8464 25L34.348 21.2591C34.2707 21.1764 34.2707 21.0424 34.348 20.9598L35.1876 20.062C35.2649 19.9793 35.3902 19.9793 35.4675 20.062L39.9456 24.8504C40.0239 24.9342 40.0239 25.0659 39.9456 25.1497L39.9456 25.1496Z" fill="white"/>
<path fill-rule="evenodd" clip-rule="evenodd" d="M10.0593 25.1496L14.5374 29.938C14.6147 30.0207 14.74 30.0207 14.8173 29.938L15.6569 29.0402C15.7342 28.9575 15.7342 28.8236 15.6569 28.7409L12.1584 25L15.6569 21.2591C15.7342 21.1764 15.7342 21.0424 15.6569 20.9598L14.8173 20.062C14.74 19.9793 14.6147 19.9793 14.5374 20.062L10.0593 24.8504C9.98097 24.9342 9.98097 25.0659 10.0593 25.1497L10.0593 25.1496Z" fill="white"/>
</svg>
