<svg width="70" height="60" viewBox="0 0 70 60" fill="none" xmlns="http://www.w3.org/2000/svg">
<path d="M2.69136 60H52.9455C54.8586 60.0009 56.6939 59.243 58.0488 57.8924C59.4037 56.5419 60.1675 54.709 60.1727 52.796V43.0653L68.1296 45.3124C68.3281 45.3681 68.5377 45.37 68.7371 45.3178C68.9365 45.2657 69.1184 45.1613 69.2641 45.0155C69.4097 44.8697 69.5139 44.6878 69.566 44.4883C69.618 44.2889 69.6159 44.0792 69.56 43.8809L67.016 34.8636C66.9621 34.6729 66.8603 34.4992 66.7202 34.359L60.1727 27.8104V19.9312C60.1727 19.9104 60.1623 19.893 60.1611 19.8732V17.9707C60.1642 16.3868 59.6434 14.8464 58.6799 13.5893C57.7163 12.3321 56.3641 11.4289 54.8338 11.0203C53.3036 10.6116 51.6811 10.7205 50.2191 11.3299C48.7572 11.9393 47.5377 13.015 46.7508 14.3896L33.4807 1.11958C32.7629 0.402676 31.7899 0 30.7754 0C29.761 0 28.788 0.402676 28.0702 1.11958L25.3695 3.82138C24.6526 4.53917 24.25 5.51217 24.25 6.52666C24.25 7.54114 24.6526 8.51414 25.3695 9.23193L34.9088 18.7712H2.69136C1.97785 18.7721 1.29383 19.0559 0.789298 19.5605C0.284769 20.065 0.000920857 20.749 0 21.4625V57.3086C0.000920857 58.0222 0.284769 58.7062 0.789298 59.2107C1.29383 59.7152 1.97785 59.9991 2.69136 60ZM38.5375 19.1238L38.5166 19.103L30.8775 11.4639C31.2543 10.7964 31.6895 10.1636 32.178 9.573L60.2516 37.6466C59.7602 38.2315 59.3128 38.8519 58.9129 39.5028L47.7484 28.3383L47.724 28.3139L38.5375 19.1238ZM63.726 34.6398C63.079 35.042 62.4653 35.4955 61.8908 35.9959L33.8172 7.92222C34.4015 7.42692 35.032 6.98873 35.6999 6.61366L63.726 34.6398ZM48.0848 31.9472L57.841 41.7034V48.8123C56.3358 48.0241 54.662 47.6124 52.9629 47.6124C51.2638 47.6124 49.5901 48.0241 48.0848 48.8123V31.9472ZM60.8224 40.838C61.8781 39.086 63.3379 37.6123 65.0798 36.5399L66.7654 42.5155L60.8224 40.838ZM52.9687 13.0984C53.609 13.0968 54.2434 13.2216 54.8353 13.4659C55.4271 13.7102 55.9649 14.069 56.4177 14.5217C56.8705 14.9745 57.2293 15.5123 57.4736 16.1042C57.7178 16.6961 57.8427 17.3304 57.841 17.9707V25.4752L48.4711 16.1053C48.8398 15.2158 49.4637 14.4554 50.2642 13.9203C51.0647 13.3851 52.0058 13.0991 52.9687 13.0984ZM27.0099 5.46171L29.7105 2.75991C29.9932 2.47797 30.3762 2.31964 30.7754 2.31964C31.1747 2.31964 31.5577 2.47797 31.8404 2.75991L33.997 4.91648C32.0433 6.14475 30.399 7.80685 29.192 9.77369L27.0099 7.5916C26.7279 7.30889 26.5696 6.92592 26.5696 6.52666C26.5696 6.12739 26.7279 5.74442 27.0099 5.46171ZM2.32014 21.4625C2.32134 21.3645 2.36084 21.2707 2.4302 21.2014C2.49955 21.132 2.59328 21.0925 2.69136 21.0913H37.2289L45.7647 29.6271V50.9967C45.7646 51.219 45.8284 51.4367 45.9484 51.6238C46.0685 51.8109 46.2398 51.9596 46.442 52.0521C46.6441 52.1447 46.8686 52.1771 47.0887 52.1457C47.3088 52.1143 47.5153 52.0203 47.6834 51.8749C49.0926 50.6757 50.8693 49.9943 52.719 49.9436C54.5686 49.893 56.38 50.4762 57.8526 51.5965V52.7948C57.8483 54.0928 57.3292 55.3361 56.4092 56.2517C55.4892 57.1673 54.2435 57.6806 52.9455 57.6787H2.69136C2.59328 57.6775 2.49955 57.638 2.4302 57.5686C2.36084 57.4993 2.32134 57.4056 2.32014 57.3075V21.4625Z" fill="#906E50"/>
<path d="M7.27335 45.3556H37.0987C37.235 45.3529 37.3698 45.3258 37.4966 45.2756C37.5268 45.264 37.5558 45.2536 37.5859 45.2396C37.7056 45.1862 37.8151 45.1124 37.9096 45.0215C37.92 45.0111 37.927 44.9983 37.9363 44.9879C37.9956 44.9282 38.0481 44.862 38.0929 44.7907C38.1068 44.7675 38.1068 44.7408 38.1184 44.7176C38.1803 44.5761 38.2217 44.4265 38.2414 44.2733C38.2414 44.2466 38.2576 44.2234 38.2576 44.1956V26.3827C38.2576 26.0751 38.1354 25.78 37.9178 25.5624C37.7003 25.3449 37.4052 25.2227 37.0975 25.2227H7.27335C7.22835 25.2286 7.18378 25.2376 7.13994 25.2493C6.98701 25.2613 6.8391 25.3094 6.7084 25.3897C6.64455 25.4242 6.58431 25.465 6.52859 25.5115C6.46872 25.564 6.41501 25.6232 6.3685 25.6878C6.33557 25.7188 6.30494 25.7522 6.27685 25.7876C6.26293 25.8108 6.26293 25.8375 6.25133 25.8607C6.18924 26.0025 6.14783 26.1526 6.12836 26.3062C6.12836 26.3328 6.11328 26.3549 6.11328 26.3827V44.1956C6.11328 44.5032 6.2355 44.7983 6.45306 45.0159C6.67061 45.2334 6.96568 45.3556 7.27335 45.3556ZM8.43342 28.4268L32.8923 43.0355H8.43342V28.4268ZM35.9375 42.1515L11.4774 27.5428H35.9375V42.1515Z" fill="#906E50"/>
<path d="M15.456 53.4453H10.0663C9.75865 53.4453 9.46358 53.5675 9.24603 53.7851C9.02847 54.0026 8.90625 54.2977 8.90625 54.6054C8.90625 54.9131 9.02847 55.2081 9.24603 55.4257C9.46358 55.6432 9.75865 55.7654 10.0663 55.7654H15.456C15.7637 55.7654 16.0587 55.6432 16.2763 55.4257C16.4938 55.2081 16.6161 54.9131 16.6161 54.6054C16.6161 54.2977 16.4938 54.0026 16.2763 53.7851C16.0587 53.5675 15.7637 53.4453 15.456 53.4453Z" fill="#906E50"/>
<path d="M32.1397 53.4453H20.6191C20.3114 53.4453 20.0163 53.5675 19.7988 53.7851C19.5812 54.0026 19.459 54.2977 19.459 54.6054C19.459 54.9131 19.5812 55.2081 19.7988 55.4257C20.0163 55.6432 20.3114 55.7654 20.6191 55.7654H32.1397C32.4474 55.7654 32.7424 55.6432 32.96 55.4257C33.1775 55.2081 33.2998 54.9131 33.2998 54.6054C33.2998 54.2977 33.1775 54.0026 32.96 53.7851C32.7424 53.5675 32.4474 53.4453 32.1397 53.4453Z" fill="#906E50"/>
</svg>
