<svg width="60" height="60" viewBox="0 0 60 60" fill="none" xmlns="http://www.w3.org/2000/svg">
<path d="M7.99736 60H51.9944C53.6511 60 54.9942 58.6569 54.9942 57.0002V23.2564L55.3491 23.4914C56.0014 23.9418 56.8102 24.1045 57.5859 23.9414C58.384 23.7762 59.0802 23.2926 59.5137 22.6024L59.5198 22.5924C60.3984 21.1769 60.0137 19.3213 58.6449 18.3717L31.6417 0.504024C30.6499 -0.168008 29.3488 -0.168008 28.357 0.504024L1.33875 18.3808C-0.0273018 19.3336 -0.407103 21.1897 0.47484 22.6025C0.903578 23.2922 1.59582 23.7763 2.39069 23.9424C2.59049 23.9827 2.79387 24.0028 2.99764 24.0025C3.58041 24.0033 4.14992 23.8291 4.63255 23.5025L4.99749 23.2575V57.0002C4.99749 58.6569 6.34056 60 7.99736 60ZM52.9942 57.0002C52.9942 57.5525 52.5466 58.0001 51.9943 58.0001H7.99736C7.4451 58.0001 6.99744 57.5525 6.99744 57.0002V21.9356L29.9958 6.73657L52.9942 21.9356V57.0002ZM3.5186 21.8376C3.30928 21.9823 3.04954 22.0344 2.8006 21.9816C2.53789 21.9267 2.30936 21.7662 2.16869 21.5376C1.85209 21.0438 1.97532 20.3888 2.44963 20.0437L29.4688 2.16598C29.6242 2.06038 29.8079 2.00401 29.9958 2.00401C30.1875 2.0048 30.3744 2.06295 30.5328 2.17103L57.534 20.0388C58.0122 20.3806 58.1403 21.0362 57.8259 21.5328C57.6819 21.7641 57.4497 21.9266 57.183 21.9827C56.9324 22.0325 56.6722 21.9777 56.463 21.8308L30.5478 4.70373C30.2137 4.4855 29.7821 4.4855 29.4479 4.70373L3.5186 21.8376Z" fill="#906E50"/>
<path d="M21.6425 18.8707C20.4812 17.715 18.6041 17.715 17.4428 18.8707L11.8673 24.4463C10.7109 25.6074 10.7109 27.4849 11.8673 28.646L20.9156 37.7024L15.35 43.269C15.2293 43.3887 15.1414 43.5375 15.095 43.701L12.7642 51.8615C12.5984 52.4405 12.7142 53.0638 13.0768 53.5447C13.4394 54.0255 14.0068 54.3083 14.609 54.3083C14.7872 54.3079 14.9645 54.2831 15.136 54.2343L23.2965 51.9016C23.4599 51.8551 23.6087 51.7672 23.7285 51.6466L29.2961 46.083L38.3465 55.1343C39.5081 56.2896 41.3846 56.2896 42.5462 55.1343L48.1217 49.5587C49.2781 48.3976 49.2781 46.5201 48.1217 45.359L39.0763 36.3027L46.7328 28.6462C47.4761 27.904 47.8937 26.8968 47.8937 25.8464C47.8937 24.7961 47.4761 23.7888 46.7328 23.0467L43.945 20.2589C43.2042 19.5138 42.1959 19.0965 41.1452 19.0999C40.0948 19.0964 39.0865 19.5133 38.3455 20.2579L30.696 27.9224L21.6425 18.8707ZM18.1508 48.8467C17.5626 48.2641 16.8589 47.8111 16.085 47.5168L16.707 45.3379L20.1747 46.8239L21.6607 50.2916L19.4818 50.9136C19.1872 50.1392 18.7338 49.4351 18.1508 48.8467ZM22.1215 46.2908L36.9654 31.4469L39.0363 33.5177L23.3634 49.1896L22.1215 46.2908ZM34.8957 26.5482L36.9665 24.4773L42.5222 30.033L40.4503 32.1028L34.8957 26.5482ZM35.5526 30.033L20.7076 44.8769L17.8078 43.635L33.4807 27.9621L35.5526 30.033ZM13.2812 27.2331C12.9021 26.8536 12.9021 26.2387 13.2812 25.8592L18.8567 20.2836C19.2362 19.9045 19.8511 19.9045 20.2306 20.2836L22.3115 22.3645L20.2306 24.4454C19.9707 24.6964 19.8665 25.0682 19.9579 25.4179C20.0494 25.7675 20.3224 26.0405 20.672 26.132C21.0216 26.2235 21.3934 26.1192 21.6445 25.8593L23.7254 23.7784L25.7963 25.8513L24.4124 27.2352C24.1525 27.4862 24.0482 27.858 24.1397 28.2077C24.2312 28.5572 24.5042 28.8303 24.8538 28.9218C25.2034 29.0133 25.5752 28.909 25.8263 28.6491L27.2102 27.2652L29.2811 29.3361L22.3315 36.2856L13.2812 27.2331ZM14.7271 52.2714L15.527 49.4517C16.4356 49.8349 17.1585 50.558 17.5419 51.4666L14.7271 52.2714ZM39.7333 39.7903L38.3494 41.1742C38.0895 41.4252 37.9853 41.797 38.0767 42.1467C38.1682 42.4963 38.4413 42.7693 38.7909 42.8608C39.1404 42.9523 39.5122 42.848 39.7633 42.5881L41.1472 41.2022L43.2181 43.2731L41.1372 45.354C40.8773 45.605 40.7731 45.9768 40.8645 46.3265C40.956 46.6761 41.229 46.9491 41.5786 47.0406C41.9282 47.1321 42.3 47.0278 42.5511 46.7679L44.632 44.687L46.7118 46.7678C47.0909 47.1473 47.0909 47.7622 46.7118 48.1417L41.1362 53.7174C40.7567 54.0965 40.1419 54.0965 39.7623 53.7174L30.712 44.667L37.6616 37.7174L39.7333 39.7903ZM41.1462 21.1036C41.6656 21.1019 42.164 21.3082 42.5301 21.6765L45.3179 24.4643C46.0812 25.2287 46.0812 26.4667 45.3179 27.2311L43.935 28.6191L38.3794 23.0634L39.7632 21.6795C40.1288 21.3105 40.6269 21.1031 41.1462 21.1036Z" fill="#906E50"/>
</svg>
