<svg width="68" height="60" viewBox="0 0 68 60" fill="none" xmlns="http://www.w3.org/2000/svg">
<path d="M67.9999 47.7778V16.6667C67.9999 16.372 67.8843 16.0894 67.6786 15.881C67.473 15.6726 67.194 15.5556 66.9031 15.5556H63.6128V1.11111C63.6128 0.816426 63.4972 0.533811 63.2916 0.325437C63.0859 0.117063 62.8069 0 62.516 0H47.1612C46.8704 0 46.5914 0.117063 46.3857 0.325437C46.18 0.533811 46.0645 0.816426 46.0645 1.11111V6.66667H38.3871C38.0962 6.66667 37.8172 6.78373 37.6115 6.9921C37.4059 7.20048 37.2903 7.48309 37.2903 7.77778V15.5556H25.2258V3.33333C25.2258 3.03865 25.1103 2.75603 24.9046 2.54766C24.6989 2.33929 24.42 2.22222 24.1291 2.22222H7.67751C7.38663 2.22222 7.10766 2.33929 6.90198 2.54766C6.69629 2.75603 6.58074 3.03865 6.58074 3.33333V15.5556H1.09689C0.806007 15.5556 0.52704 15.6726 0.321355 15.881C0.115671 16.0894 0.000118647 16.372 0.000118647 16.6667V47.7778C0.000118647 48.0725 0.115671 48.3551 0.321355 48.5635C0.52704 48.7718 0.806007 48.8889 1.09689 48.8889H2.91342L0.0467314 58.5695C-0.00269505 58.7353 -0.0130885 58.9107 0.0163835 59.0814C0.0458555 59.2521 0.114374 59.4134 0.216452 59.5525C0.31853 59.6915 0.45133 59.8044 0.604218 59.8821C0.757107 59.9599 0.925834 60.0002 1.09689 60H4.3872C4.59092 60 4.79062 59.9425 4.96397 59.8341C5.13732 59.7257 5.27749 59.5706 5.36881 59.3861L10.5483 48.8889H57.4517L62.6312 59.3861C62.7225 59.5706 62.8627 59.7257 63.036 59.8341C63.2094 59.9425 63.4091 60 63.6128 60H66.9031C67.0742 60.0002 67.2429 59.9599 67.3958 59.8821C67.5487 59.8044 67.6815 59.6915 67.7835 59.5525C67.8856 59.4134 67.9541 59.2521 67.9836 59.0814C68.0131 58.9107 68.0027 58.7353 67.9533 58.5695L65.0866 48.8889H66.9031C67.194 48.8889 67.473 48.7718 67.6786 48.5635C67.8843 48.3551 67.9999 48.0725 67.9999 47.7778ZM52.6451 2.22222H57.0322V8.88889H52.6451V2.22222ZM48.258 2.22222H50.4516V10C50.4516 10.2947 50.5671 10.5773 50.7728 10.7857C50.9785 10.994 51.2574 11.1111 51.5483 11.1111H58.1289C58.4198 11.1111 58.6988 10.994 58.9045 10.7857C59.1102 10.5773 59.2257 10.2947 59.2257 10V2.22222H61.4193V15.5556H48.258V2.22222ZM39.4839 8.88889H46.0645V15.5556H39.4839V8.88889ZM19.742 4.44444H23.0323V15.5556H19.742V4.44444ZM14.2581 4.44444H17.5484V15.5556H14.2581V4.44444ZM8.77428 4.44444H12.0646V15.5556H8.77428V4.44444ZM3.70994 57.7778H2.57067L5.20292 48.8889H8.09703L3.70994 57.7778ZM32.9032 46.6667H2.19366V17.7778H32.9032V46.6667ZM65.4293 57.7778H64.2901L59.903 48.8889H62.7971L65.4293 57.7778ZM65.8063 46.6667H35.0968V17.7778H65.8063V46.6667Z" fill="#906E50"/>
<path d="M38.3868 27.7773C38.0959 27.7773 37.817 27.8944 37.6113 28.1028C37.4056 28.3112 37.29 28.5938 37.29 28.8885V35.5551C37.29 35.8498 37.4056 36.1324 37.6113 36.3408C37.817 36.5492 38.0959 36.6662 38.3868 36.6662C38.6777 36.6662 38.9567 36.5492 39.1623 36.3408C39.368 36.1324 39.4836 35.8498 39.4836 35.5551V28.8885C39.4836 28.5938 39.368 28.3112 39.1623 28.1028C38.9567 27.8944 38.6777 27.7773 38.3868 27.7773Z" fill="#906E50"/>
<path d="M29.6124 36.6662C29.9033 36.6662 30.1822 36.5492 30.3879 36.3408C30.5936 36.1324 30.7092 35.8498 30.7092 35.5551V28.8885C30.7092 28.5938 30.5936 28.3112 30.3879 28.1028C30.1822 27.8944 29.9033 27.7773 29.6124 27.7773C29.3215 27.7773 29.0425 27.8944 28.8369 28.1028C28.6312 28.3112 28.5156 28.5938 28.5156 28.8885V35.5551C28.5156 35.8498 28.6312 36.1324 28.8369 36.3408C29.0425 36.5492 29.3215 36.6662 29.6124 36.6662Z" fill="#906E50"/>
</svg>
