<svg width="53" height="60" viewBox="0 0 53 60" fill="none" xmlns="http://www.w3.org/2000/svg">
<path d="M35.7067 16.1523H7.11749C6.63243 16.1523 6.23926 16.5475 6.23926 17.035C6.23926 17.5225 6.63243 17.9176 7.11749 17.9176H35.7068C36.1919 17.9176 36.585 17.5225 36.585 17.035C36.585 16.5475 36.1917 16.1523 35.7067 16.1523Z" fill="#B98E76"/>
<path d="M7.11749 11.7926H21.412C21.8971 11.7926 22.2903 11.3975 22.2903 10.91C22.2903 10.4225 21.8971 10.0273 21.412 10.0273H7.11749C6.63243 10.0273 6.23926 10.4225 6.23926 10.91C6.23926 11.3976 6.63243 11.7926 7.11749 11.7926Z" fill="#B98E76"/>
<path d="M35.7067 21.5742H7.11749C6.63243 21.5742 6.23926 21.9694 6.23926 22.4569C6.23926 22.9444 6.63243 23.3395 7.11749 23.3395H35.7068C36.1919 23.3395 36.585 22.9444 36.585 22.4569C36.5849 21.9694 36.1917 21.5742 35.7067 21.5742Z" fill="#B98E76"/>
<path d="M13.6292 53.8668H4.47991C2.97821 53.8668 1.75636 52.6389 1.75636 51.1296V4.50241C1.75636 2.99317 2.97821 1.76518 4.47991 1.76518H30.8382C30.9233 1.76518 31.0071 1.77303 31.09 1.78428V7.28898C31.09 9.77169 33.0998 11.7914 35.57 11.7914H41.047C41.0583 11.8748 41.066 11.9591 41.066 12.0446V27.0751C41.066 27.5626 41.4592 27.9577 41.9443 27.9577C42.4293 27.9577 42.8225 27.5626 42.8225 27.0751V12.0448C42.8225 11.0766 42.4473 10.1663 41.7661 9.48154L33.3884 1.06171C32.7072 0.377105 31.8015 0 30.8382 0H4.47991C2.00961 0 0 2.01982 0 4.50241V51.1296C0 53.6122 2.00973 55.6319 4.47991 55.6319H13.6292C14.1143 55.6319 14.5075 55.2368 14.5075 54.7493C14.5075 54.2618 14.1143 53.8668 13.6292 53.8668ZM39.8241 10.0262H35.5701C34.0684 10.0262 32.8465 8.79823 32.8465 7.28898V3.01356L39.8241 10.0262Z" fill="#B98E76"/>
<path d="M52.7304 43.2101L45.2892 30.5867C44.7468 29.6664 43.5666 29.3622 42.6504 29.9077L40.8404 30.9854C39.4354 31.8219 38.8416 33.5146 39.324 35.0148C38.7142 35.2368 38.0456 35.2333 37.4299 34.9941C36.0009 34.5423 34.9144 33.6332 33.12 34.0893C30.0732 34.869 30.1658 34.8299 29.8902 34.9249C28.1062 33.9041 27.0338 33.6003 25.14 34.3366L23.4518 34.9925C22.6703 35.296 21.809 35.224 21.0868 34.794L20.6261 34.521C20.8509 33.1673 20.2536 31.7387 18.9887 30.9857C18.9887 30.9857 18.9887 30.9857 18.9886 30.9855L17.1787 29.9079C16.265 29.364 15.0813 29.6685 14.54 30.5867L7.09859 43.2102C6.55628 44.1303 6.85804 45.3168 7.77406 45.8621L9.58393 46.9397C10.1316 47.2659 10.7335 47.4209 11.3282 47.4209C11.9913 47.4209 12.6451 47.2278 13.204 46.864L13.5812 47.0877L12.7849 48.2025C11.8358 49.5312 12.1374 51.3788 13.4596 52.3327C14.0711 52.7737 14.8392 52.9752 15.6336 52.8498C15.7597 53.5903 16.1634 54.2833 16.817 54.7551C17.4309 55.1981 18.1956 55.3998 18.9914 55.2738C19.1178 56.0137 19.5212 56.7062 20.1745 57.1776C21.0525 57.811 22.1442 57.8842 23.0538 57.4938C23.2528 58.0134 23.5987 58.4826 24.0814 58.8309C25.3416 59.7399 27.0775 59.5028 28.0567 58.3251L30.173 59.5851C31.5726 60.4186 33.3784 59.9554 34.2082 58.5472C34.4205 58.1872 34.5521 57.7948 34.6003 57.3916L34.605 57.3945C36.0025 58.2263 37.8124 57.7606 38.6402 56.3565C38.88 55.9497 39.0114 55.5085 39.0433 55.0664C40.2751 55.3776 41.6175 54.8577 42.2973 53.7045C42.5203 53.3263 42.6497 52.9176 42.6922 52.5064C44.0124 53.0271 45.5553 52.5239 46.3009 51.2592C46.7019 50.579 46.8153 49.7826 46.6203 49.0165C46.5087 48.5782 46.3035 48.1804 46.0218 47.8444L47.1882 47.1595C48.175 47.5666 49.3011 47.5014 50.2449 46.9396L52.0546 45.862C52.9706 45.3171 53.2731 44.1308 52.7304 43.2101ZM10.4792 45.4211L8.66932 44.3434C8.58886 44.2954 8.56216 44.1907 8.60974 44.1098L16.0512 31.4862C16.0991 31.4049 16.2037 31.3786 16.2837 31.4264L18.0934 32.5039C18.8976 32.9829 19.1493 34.0195 18.6815 34.813L12.7767 44.83C12.3054 45.6297 11.2749 45.8947 10.4792 45.4211ZM14.4838 50.8986C13.9505 50.5138 13.8285 49.7683 14.2117 49.232L15.3822 47.5933C15.7551 47.0712 16.4982 46.9284 17.0405 47.3197C17.5728 47.7037 17.6949 48.4512 17.3129 48.9862L16.1423 50.6249C15.7602 51.1601 15.0159 51.2824 14.4838 50.8986ZM17.8414 53.3212C17.3091 52.9371 17.187 52.1893 17.5691 51.6545L18.7396 50.0159C18.7396 50.0159 18.7396 50.0159 18.7396 50.0158C18.7396 50.0158 18.7396 50.0156 18.7398 50.0156L20.0316 48.2072C20.2167 47.9481 20.4911 47.7768 20.8043 47.7252C20.8694 47.7145 20.9345 47.7092 20.9993 47.7092C21.2457 47.7092 21.4856 47.7863 21.6899 47.9336C21.9476 48.1197 22.118 48.3953 22.1693 48.7101C22.2208 49.025 22.1472 49.341 21.962 49.6001L19.4995 53.0475C19.1169 53.5836 18.3749 53.7063 17.8414 53.3212ZM21.1989 55.7436C20.6668 55.3597 20.5446 54.6125 20.926 54.0777C20.9261 54.0774 20.9264 54.0772 20.9265 54.077L23.389 50.6297C23.7708 50.0949 24.5152 49.9721 25.0473 50.356C25.5796 50.74 25.7016 51.4876 25.3195 52.0226L24.2255 53.5543C24.2255 53.5543 24.2255 53.5543 24.2254 53.5544L22.8571 55.47C22.475 56.0049 21.7313 56.1278 21.1989 55.7436ZM25.1057 57.3969C24.5738 57.013 24.4514 56.2661 24.8326 55.7312L25.6522 54.5839C26.0342 54.0488 26.7785 53.9265 27.3105 54.3103C27.8427 54.6942 27.9649 55.442 27.5828 55.9769L26.7639 57.1231C26.3819 57.6582 25.6377 57.781 25.1057 57.3969ZM44.7901 50.3596C44.4559 50.9264 43.7255 51.1144 43.1614 50.7786C42.2062 50.2099 36.0446 46.5412 35.3877 46.15C34.9702 45.9016 34.4316 46.04 34.1845 46.4594C33.9373 46.8788 34.075 47.4202 34.4923 47.6686L40.3693 51.1679L40.3694 51.1681C40.9336 51.5039 41.1218 52.2357 40.7864 52.805C40.4521 53.3721 39.7214 53.5597 39.1575 53.2242C36.9838 51.93 35.2188 50.8791 33.2773 49.723C32.8598 49.4746 32.3213 49.613 32.0741 50.0324C31.8269 50.4518 31.9646 50.9932 32.3819 51.2416L36.7122 53.82L36.7132 53.8206C37.2778 54.1575 37.4641 54.889 37.1293 55.4571C36.795 56.0241 36.0645 56.212 35.5003 55.8761L33.1763 54.4925C33.1761 54.4924 33.1757 54.4923 33.1755 54.492C33.1753 54.4919 33.175 54.4918 33.1748 54.4917L31.4789 53.4818C31.0614 53.2332 30.5228 53.3716 30.2757 53.7912C30.0285 54.2106 30.1662 54.752 30.5835 55.0004L32.2798 56.0104C32.28 56.0105 32.2802 56.0108 32.2805 56.0109C32.8447 56.3467 33.0329 57.0785 32.6974 57.6478C32.3632 58.2148 31.6326 58.4027 31.0684 58.0668L29.0896 56.8887C29.9379 55.5732 29.6152 53.8004 28.3348 52.8767C27.9588 52.6056 27.5401 52.4367 27.1118 52.3642C27.5661 51.1434 27.1744 49.7182 26.0715 48.9225C25.4185 48.4512 24.6367 48.2884 23.8989 48.4047C23.7676 47.633 23.3477 46.9571 22.7142 46.5002C21.5228 45.6408 19.9037 45.806 18.9036 46.8228C18.7004 46.4641 18.4198 46.1423 18.0649 45.8862C17.0748 45.1721 15.7894 45.1654 14.8093 45.7669L14.4069 45.5282L19.9303 36.1581L20.1932 36.314C21.3545 37.0054 22.7717 37.1495 24.0851 36.6391L25.7732 35.9832C26.7393 35.6079 27.272 35.5835 28.2276 36.0366C27.6023 36.7425 27.2312 37.6694 27.2312 38.6683V42.5817C27.2312 43.6211 28.072 44.4673 29.1054 44.468H29.108C30.1446 44.468 31.1194 44.0625 31.8527 43.3259C32.2801 42.8966 32.5957 42.3847 32.7848 41.826C33.9187 42.5008 43.2872 48.0764 44.3734 48.7232C44.6466 48.8859 44.8404 49.1457 44.9191 49.4548C44.9978 49.7636 44.9519 50.085 44.7901 50.3596ZM51.1598 44.3434L49.3498 45.4211C48.5541 45.8946 47.5236 45.6294 47.0525 44.8302L44.2849 40.1351C44.0376 39.7157 43.4986 39.5773 43.0817 39.8255C42.6644 40.0739 42.5265 40.6153 42.7736 41.0347L45.5412 45.7299C45.5934 45.8183 45.6499 45.9023 45.7084 45.9842L44.939 46.436C44.7835 46.5285 44.6339 46.6305 44.4908 46.7412L32.5599 39.6403C31.9753 39.2926 31.2342 39.7165 31.2342 40.3997C31.225 40.4524 31.3249 41.3597 30.611 42.077C30.2094 42.4802 29.6756 42.7024 29.1079 42.7024C29.1074 42.7024 29.107 42.7024 29.1065 42.7024C29.0408 42.7024 28.9874 42.648 28.9874 42.5812V38.6678C28.9874 37.6455 29.6873 36.783 30.6337 36.5422L33.5506 35.8002C34.609 35.5314 35.2073 36.0994 36.792 36.6385C37.8921 37.0662 39.0883 37.0398 40.1501 36.5841L40.6802 37.4834C40.9275 37.903 41.4662 38.0413 41.8834 37.793C42.3007 37.5446 42.4385 37.0032 42.1914 36.5838L41.1474 34.8127C40.675 34.0114 40.9382 32.9788 41.7354 32.5038L43.5453 31.4263C43.6243 31.379 43.7289 31.4032 43.7779 31.4862L51.2191 44.1096C51.2671 44.191 51.2407 44.2952 51.1598 44.3434Z" fill="#B98E76"/>
</svg>
