<svg width="60" height="60" viewBox="0 0 60 60" fill="none" xmlns="http://www.w3.org/2000/svg">
<path fill-rule="evenodd" clip-rule="evenodd" d="M60 14.5036V59.144C60 59.6167 59.6194 60 59.1498 60H0.850202C0.380648 60 0 59.6167 0 59.144V36.4933C0 36.0206 0.380648 35.6373 0.850202 35.6373H3.73178V14.5036C3.73178 14.1785 3.91457 13.8816 4.20376 13.7369L31.4876 0.0894258C31.7259 -0.0298086 32.0059 -0.0298086 32.2442 0.0894258L59.528 13.7369C59.8172 13.8816 60 14.1785 60 14.5036ZM5.43219 35.6373H8.17737V18.2367C8.17737 17.9132 8.35846 17.6174 8.64534 17.472L31.4836 5.89804C31.7241 5.77623 32.0077 5.77623 32.2482 5.89804L55.0864 17.472C55.3733 17.6174 55.5544 17.9132 55.5544 18.2367V35.6373H58.2996V15.0342C54.7108 13.2391 31.866 1.8119 31.866 1.8119L5.43219 15.0342V35.6373ZM9.87777 35.6373H53.854V18.7641L31.866 7.62113L9.87777 18.7641V35.6373ZM58.2996 40.794V37.3494C58.2996 37.3494 8.8234 37.3494 1.7004 37.3494V58.2879H33.7193V54.8433H6.96947C6.49992 54.8433 6.11927 54.4601 6.11927 53.9873V41.65C6.11927 41.1772 6.49992 40.794 6.96947 40.794H58.2996ZM35.4197 58.2879H39.8902V42.5061H35.4197V58.2879ZM41.5906 58.2879H46.0094V42.5061H41.5906V58.2879ZM47.7098 58.2879H52.1287V42.5061H47.7098V58.2879ZM53.8291 58.2879H58.2996V42.5061H53.8291V58.2879ZM33.7193 53.1312V42.5061H7.81968V53.1312H33.7193ZM30.5238 22.0721C30.9301 21.8359 31.4506 21.9763 31.6852 22.3854C31.9198 22.7946 31.7803 23.3186 31.374 23.5549L24.2542 27.6936C23.8479 27.9299 23.3275 27.7895 23.0928 27.3803C22.8583 26.9711 22.9977 26.4472 23.404 26.2109L30.5238 22.0721ZM40.3822 21.5427C40.7885 21.3064 41.3089 21.4468 41.5436 21.856C41.7781 22.2652 41.6387 22.7891 41.2324 23.0254L32.2911 28.2231C31.8847 28.4594 31.3642 28.319 31.1296 27.9098C30.895 27.5006 31.0345 26.9766 31.4409 26.7405L40.3822 21.5427Z" fill="#906E50"/>
</svg>
