<svg width="62" height="52" viewBox="0 0 62 52" fill="none" xmlns="http://www.w3.org/2000/svg">
<path d="M50.7794 28.5361C45.1441 28.5361 40.5596 33.5746 40.5596 39.768C40.5596 45.9611 45.1437 50.9994 50.7786 50.9999C52.0476 51 52.0747 48.826 50.7794 48.826C46.2348 48.826 42.5376 44.7627 42.5376 39.768C42.5376 34.7734 46.2348 30.71 50.7794 30.71C55.324 30.71 59.0212 34.7734 59.0212 39.768V42.6666C59.0212 43.6658 58.282 44.4782 57.3729 44.4782C56.4637 44.4782 55.7245 43.6658 55.7245 42.6666C55.7245 42.6666 55.7245 35.4488 55.7245 35.4203C55.7245 34.0153 53.7465 34.0102 53.7465 35.4482C52.9174 34.7584 51.8969 34.3332 50.7794 34.3332C48.0532 34.3332 45.8343 36.7718 45.8343 39.768C45.8343 42.7642 48.0532 45.2028 50.7794 45.2028C51.9891 45.2028 53.0842 44.7041 53.9446 43.9082C54.4224 45.496 55.7698 46.6521 57.3729 46.6521C59.3728 46.6521 60.9993 44.8646 60.9993 42.6666V39.768C60.9993 33.5746 56.4148 28.5361 50.7794 28.5361ZM50.7794 43.0289C49.1439 43.0289 47.8124 41.5655 47.8124 39.768C47.8124 37.9706 49.1439 36.5072 50.7794 36.5072C52.4149 36.5072 53.7465 37.9706 53.7465 39.768C53.7465 41.5655 52.4149 43.0289 50.7794 43.0289Z" fill="#906E50" stroke="#906E50"/>
<path d="M37.5937 38.6812H7.26378C6.35195 38.6812 5.50974 38.3613 4.81426 37.8257L20.4816 23.3674C20.4816 23.3674 24.7875 26.6577 24.7918 26.661C26.8808 28.2572 29.7922 28.2301 31.9339 26.661L36.2437 23.3677C36.2437 23.3677 42.258 28.9254 42.2978 28.9621C43.2306 29.8241 44.5767 28.2269 43.5703 27.2979L37.926 22.0822L53.7476 9.99217V25.9411C53.7476 27.3277 55.7257 27.36 55.7257 25.942V7.88407C55.7257 4.08821 52.9157 1 49.4619 1H7.26378C3.80995 1 1 4.08821 1 7.88407V33.9711C1 37.7669 3.80995 40.8551 7.26378 40.8551H37.5935C38.8252 40.8551 38.8882 38.6812 37.5937 38.6812ZM7.26378 3.17392H49.4619C51.6678 3.17392 53.4686 5.02205 53.7012 7.37952L30.8058 24.8749C29.3454 25.9901 27.3803 25.9901 25.9199 24.8749L3.02448 7.37952C3.25708 5.02205 5.05789 3.17392 7.26378 3.17392ZM2.97804 33.9711V9.99217L18.799 22.0816L3.50812 36.1924C3.18094 35.5274 2.97804 34.7785 2.97804 33.9711Z" fill="#906E50" stroke="#906E50"/>
</svg>
