<svg width="52" height="52" viewBox="0 0 52 52" fill="none" xmlns="http://www.w3.org/2000/svg">
<path d="M50.7483 47.7615L45.4186 37.2387C45.0443 36.5057 44.348 36.0681 43.556 36.0681H33.2037C37.6987 30.1428 42.0675 23.5069 42.0675 17.8079C42.0675 8.53992 34.8602 1 26.0012 1C17.1407 1 9.9322 8.53992 9.9322 17.8079C9.9322 23.5004 14.3029 30.139 18.8 36.0681H8.44636C7.64997 36.0681 6.953 36.507 6.58229 37.2411L1.25573 47.7581C0.897034 48.4582 0.916175 49.2505 1.31002 49.9354C1.70319 50.612 2.36217 51 3.11793 51H10.9736H16.8004H48.8845C49.6429 51 50.3017 50.6108 50.6916 49.9322C51.0819 49.253 51.1027 48.4619 50.7483 47.7615ZM43.556 37.7026C43.7707 37.7026 43.9383 37.8086 44.0392 38.0063L45.0214 39.9455H30.1952C30.7685 39.2155 31.3563 38.4667 31.9488 37.7026H43.556ZM26.0012 2.63442C33.9986 2.63442 40.5051 9.44122 40.5051 17.8078C40.5051 24.2443 33.7972 32.7848 28.8993 39.0209C27.8564 40.3487 26.8625 41.6141 26.0013 42.7681C25.1407 41.6152 24.1479 40.3507 23.1061 39.024C18.2058 32.7833 11.4946 24.2364 11.4946 17.8079C11.4946 9.44122 18.0022 2.63442 26.0012 2.63442ZM8.44636 37.7026H14.1428L13.4256 39.9455H6.98083L7.96344 38.0054C8.06335 37.8073 8.23044 37.7026 8.44636 37.7026ZM2.64694 49.0897C2.54137 48.9061 2.53659 48.718 2.63454 48.5268L4.29176 45.2548H11.7263L10.4113 49.3655H3.11793C2.91168 49.3656 2.7527 49.2716 2.64694 49.0897ZM12.0588 49.3656L13.5523 44.697C13.6321 44.4477 13.5924 44.1735 13.4456 43.9602C13.2987 43.7468 13.0628 43.6204 12.8115 43.6204H5.1196L6.1529 41.58H13.988C14.3239 41.58 14.6222 41.3554 14.7288 41.022L15.7903 37.7026H20.0545C20.6782 38.507 21.2969 39.2949 21.8987 40.0616C23.0965 41.5869 24.229 43.0291 25.1582 44.2998C25.3242 44.6174 25.6433 44.8203 26.0008 44.8204H26.0011C26.3586 44.8204 26.6779 44.6175 26.8439 44.2999C27.4582 43.4599 28.1623 42.5442 28.9142 41.58H45.8492L46.8826 43.6204H29.655C29.3351 43.6204 29.0476 43.8243 28.9293 44.1352C28.8108 44.446 28.8856 44.801 29.1179 45.031L33.493 49.3656H28.9586L20.1884 40.6762C19.9945 40.4842 19.7208 40.4089 19.4618 40.4767C19.203 40.5443 18.995 40.7455 18.9103 41.0102L16.2379 49.3655H12.0588V49.3656ZM26.6865 49.3656H17.8855L20.0035 42.7441L26.6865 49.3656ZM49.3525 49.0898C49.2475 49.2728 49.0899 49.3656 48.8844 49.3656H35.7651L31.6159 45.2549H47.7105L49.3677 48.5266C49.4636 48.716 49.4585 48.9055 49.3525 49.0898ZM35.8724 17.8079C35.8724 12.1135 31.4442 7.48079 26.0011 7.48079C20.5579 7.48079 16.1297 12.1134 16.1297 17.8079C16.1297 23.5038 20.5579 28.1378 26.0011 28.1378C31.4442 28.1378 35.8724 23.5037 35.8724 17.8079ZM17.6922 17.8079C17.6922 13.0147 21.4195 9.11532 26.0012 9.11532C30.5828 9.11532 34.3101 13.0147 34.3101 17.8079C34.3101 22.6025 30.5828 26.5033 26.0012 26.5033C21.4195 26.5033 17.6922 22.6024 17.6922 17.8079Z" fill="#906E50" stroke="#906E50"/>
</svg>
