<svg width="52" height="52" viewBox="0 0 52 52" fill="none" xmlns="http://www.w3.org/2000/svg">
<path d="M29.4619 1C28.9225 1 28.4854 1.43725 28.4854 1.97675C28.4854 2.51625 28.9225 2.9535 29.4619 2.9535C40.2617 2.9535 49.0477 11.7416 49.0477 22.543C49.0477 23.0825 49.4853 23.5198 50.0243 23.5198C50.5637 23.5198 51.0008 23.0825 51.0008 22.543C51.0008 10.6645 41.3386 1 29.4619 1Z" fill="#906E50"/>
<path d="M44.1496 23.5201C44.689 23.5201 45.1262 23.0825 45.1262 22.5434C45.1262 13.9041 38.0992 6.87571 29.4619 6.87571C28.9225 6.87571 28.4854 7.31334 28.4854 7.85245C28.4854 8.39196 28.9225 8.8292 29.4619 8.8292C37.0223 8.8292 43.1731 14.9812 43.1731 22.5434C43.1731 23.0825 43.6102 23.5201 44.1496 23.5201Z" fill="#906E50"/>
<path d="M37.2973 22.5435C37.2973 23.0826 37.7345 23.5202 38.2739 23.5202C38.8133 23.5202 39.2504 23.0826 39.2504 22.5435C39.2504 17.145 34.8593 12.7531 29.4619 12.7531C28.9225 12.7531 28.4854 13.1903 28.4854 13.7295C28.4854 14.269 28.9225 14.7062 29.4619 14.7062C33.7825 14.7062 37.2973 18.2217 37.2973 22.5435Z" fill="#906E50"/>
<path d="M28.4854 19.6055C28.4854 20.1447 28.9225 20.5819 29.4619 20.5819C30.543 20.5819 31.4227 21.4618 31.4227 22.5434C31.4227 23.0825 31.8598 23.5202 32.3992 23.5202C32.9383 23.5202 33.3758 23.0825 33.3758 22.5434C33.3758 20.3847 31.6199 18.6288 29.4619 18.6288C28.9225 18.6288 28.4854 19.066 28.4854 19.6055Z" fill="#906E50"/>
<path d="M19.3036 32.713C19.3036 33.2525 18.8664 33.6898 18.3269 33.6898C17.7874 33.6898 17.3501 33.2525 17.3501 32.713C17.3501 32.1739 17.7874 31.7363 18.3269 31.7363C18.8664 31.7363 19.3036 32.1739 19.3036 32.713Z" fill="#906E50"/>
<path d="M27.7609 49.8236C32.2077 52.0034 37.5575 51.0965 41.0738 47.5794L43.093 45.5599C44.1893 44.4645 44.1897 42.6899 43.0933 41.5938L35.2915 33.7912C34.1971 32.6951 32.4225 32.6935 31.3269 33.7909L28.012 37.1068C27.3627 37.7562 26.3606 37.8886 25.6297 37.422C24.438 36.66 23.2787 35.8199 22.1842 34.9248C21.7665 34.5833 21.1516 34.6451 20.8102 35.0625C20.4688 35.4803 20.5306 36.0957 20.9479 36.4368C22.1011 37.38 23.3222 38.2652 24.5783 39.068C26.0756 40.0245 28.1005 39.7807 29.3929 38.488L32.7086 35.1717C33.0401 34.8397 33.5772 34.8389 33.9102 35.172L41.7124 42.975C42.0447 43.3077 42.0454 43.8456 41.7124 44.178L39.6929 46.1982C36.7636 49.1281 32.3142 49.8801 28.6204 48.0697C15.0885 41.4328 7.72618 30.9091 3.93284 23.2492C2.11819 19.586 2.8716 15.1525 5.80777 12.2165L7.78301 10.2413C8.11413 9.90935 8.65162 9.9082 8.98426 10.2417L16.7872 18.0457C17.1176 18.3758 17.121 18.9137 16.7865 19.2476L13.4715 22.5636C12.1791 23.8562 11.9353 25.8815 12.8917 27.3794C13.4551 28.2612 14.0624 29.1311 14.6971 29.9647C15.0237 30.394 15.6363 30.4768 16.0655 30.1502C16.4946 29.8236 16.5778 29.2108 16.2509 28.7812C15.6489 27.9903 15.0721 27.1646 14.5373 26.3279C14.0708 25.5965 14.2031 24.5942 14.8524 23.9448L18.167 20.6295C19.263 19.5349 19.2641 17.7596 18.1678 16.6642L10.3656 8.86087C9.27151 7.7647 7.49653 7.76317 6.40133 8.86049L4.42685 10.8354C0.897493 14.3642 -0.00430036 19.7016 2.18266 24.1165C6.11065 32.0476 13.7362 42.9452 27.7609 49.8236Z" fill="#906E50"/>
<path d="M29.4619 1C28.9225 1 28.4854 1.43725 28.4854 1.97675C28.4854 2.51625 28.9225 2.9535 29.4619 2.9535C40.2617 2.9535 49.0477 11.7416 49.0477 22.543C49.0477 23.0825 49.4853 23.5198 50.0243 23.5198C50.5637 23.5198 51.0008 23.0825 51.0008 22.543C51.0008 10.6645 41.3386 1 29.4619 1Z" stroke="#906E50"/>
<path d="M44.1496 23.5201C44.689 23.5201 45.1262 23.0825 45.1262 22.5434C45.1262 13.9041 38.0992 6.87571 29.4619 6.87571C28.9225 6.87571 28.4854 7.31334 28.4854 7.85245C28.4854 8.39196 28.9225 8.8292 29.4619 8.8292C37.0223 8.8292 43.1731 14.9812 43.1731 22.5434C43.1731 23.0825 43.6102 23.5201 44.1496 23.5201Z" stroke="#906E50"/>
<path d="M37.2973 22.5435C37.2973 23.0826 37.7345 23.5202 38.2739 23.5202C38.8133 23.5202 39.2504 23.0826 39.2504 22.5435C39.2504 17.145 34.8593 12.7531 29.4619 12.7531C28.9225 12.7531 28.4854 13.1903 28.4854 13.7295C28.4854 14.269 28.9225 14.7062 29.4619 14.7062C33.7825 14.7062 37.2973 18.2217 37.2973 22.5435Z" stroke="#906E50"/>
<path d="M28.4854 19.6055C28.4854 20.1447 28.9225 20.5819 29.4619 20.5819C30.543 20.5819 31.4227 21.4618 31.4227 22.5434C31.4227 23.0825 31.8598 23.5202 32.3992 23.5202C32.9383 23.5202 33.3758 23.0825 33.3758 22.5434C33.3758 20.3847 31.6199 18.6288 29.4619 18.6288C28.9225 18.6288 28.4854 19.066 28.4854 19.6055Z" stroke="#906E50"/>
<path d="M19.3036 32.713C19.3036 33.2525 18.8664 33.6898 18.3269 33.6898C17.7874 33.6898 17.3501 33.2525 17.3501 32.713C17.3501 32.1739 17.7874 31.7363 18.3269 31.7363C18.8664 31.7363 19.3036 32.1739 19.3036 32.713Z" stroke="#906E50"/>
<path d="M27.7609 49.8236C32.2077 52.0034 37.5575 51.0965 41.0738 47.5794L43.093 45.5599C44.1893 44.4645 44.1897 42.6899 43.0933 41.5938L35.2915 33.7912C34.1971 32.6951 32.4225 32.6935 31.3269 33.7909L28.012 37.1068C27.3627 37.7562 26.3606 37.8886 25.6297 37.422C24.438 36.66 23.2787 35.8199 22.1842 34.9248C21.7665 34.5833 21.1516 34.6451 20.8102 35.0625C20.4688 35.4803 20.5306 36.0957 20.9479 36.4368C22.1011 37.38 23.3222 38.2652 24.5783 39.068C26.0756 40.0245 28.1005 39.7807 29.3929 38.488L32.7086 35.1717C33.0401 34.8397 33.5772 34.8389 33.9102 35.172L41.7124 42.975C42.0447 43.3077 42.0454 43.8456 41.7124 44.178L39.6929 46.1982C36.7636 49.1281 32.3142 49.8801 28.6204 48.0697C15.0885 41.4328 7.72618 30.9091 3.93284 23.2492C2.11819 19.586 2.8716 15.1525 5.80777 12.2165L7.78301 10.2413C8.11413 9.90935 8.65162 9.9082 8.98426 10.2417L16.7872 18.0457C17.1176 18.3758 17.121 18.9137 16.7865 19.2476L13.4715 22.5636C12.1791 23.8562 11.9353 25.8815 12.8917 27.3794C13.4551 28.2612 14.0624 29.1311 14.6971 29.9647C15.0237 30.394 15.6363 30.4768 16.0655 30.1502C16.4946 29.8236 16.5778 29.2108 16.2509 28.7812C15.6489 27.9903 15.0721 27.1646 14.5373 26.3279C14.0708 25.5965 14.2031 24.5942 14.8524 23.9448L18.167 20.6295C19.263 19.5349 19.2641 17.7596 18.1678 16.6642L10.3656 8.86087C9.27151 7.7647 7.49653 7.76317 6.40133 8.86049L4.42685 10.8354C0.897493 14.3642 -0.00430036 19.7016 2.18266 24.1165C6.11065 32.0476 13.7362 42.9452 27.7609 49.8236Z" stroke="#906E50"/>
</svg>
