<svg width="60" height="60" viewBox="0 0 60 60" fill="none" xmlns="http://www.w3.org/2000/svg">
<path d="M16 24.0001H28C28.5304 24.0001 29.0391 23.7894 29.4142 23.4143C29.7893 23.0393 30 22.5306 30 22.0001V16.0001C30 15.4697 29.7893 14.961 29.4142 14.5859C29.0391 14.2108 28.5304 14.0001 28 14.0001H16C15.4696 14.0001 14.9609 14.2108 14.5858 14.5859C14.2107 14.961 14 15.4697 14 16.0001V22.0001C14 22.5306 14.2107 23.0393 14.5858 23.4143C14.9609 23.7894 15.4696 24.0001 16 24.0001ZM16 16.0001H28V22.0001H16V16.0001Z" fill="white"/>
<path d="M27 26.0001H16C15.7348 26.0001 15.4804 26.1055 15.2929 26.293C15.1054 26.4805 15 26.7349 15 27.0001C15 27.2653 15.1054 27.5197 15.2929 27.7072C15.4804 27.8948 15.7348 28.0001 16 28.0001H27C27.2652 28.0001 27.5196 27.8948 27.7071 27.7072C27.8946 27.5197 28 27.2653 28 27.0001C28 26.7349 27.8946 26.4805 27.7071 26.293C27.5196 26.1055 27.2652 26.0001 27 26.0001Z" fill="white"/>
<path d="M23 30.0001H16C15.7348 30.0001 15.4804 30.1055 15.2929 30.293C15.1054 30.4805 15 30.7349 15 31.0001C15 31.2653 15.1054 31.5197 15.2929 31.7072C15.4804 31.8948 15.7348 32.0001 16 32.0001H23C23.2652 32.0001 23.5196 31.8948 23.7071 31.7072C23.8946 31.5197 24 31.2653 24 31.0001C24 30.7349 23.8946 30.4805 23.7071 30.293C23.5196 30.1055 23.2652 30.0001 23 30.0001Z" fill="white"/>
<path d="M41 31.0001C41.2652 31.0001 41.5196 30.8948 41.7071 30.7072C41.8946 30.5197 42 30.2653 42 30.0001V29.0001C42 28.7349 41.8946 28.4805 41.7071 28.293C41.5196 28.1055 41.2652 28.0001 41 28.0001C40.7348 28.0001 40.4804 28.1055 40.2929 28.293C40.1054 28.4805 40 28.7349 40 29.0001V30.0001C40 30.2653 40.1054 30.5197 40.2929 30.7072C40.4804 30.8948 40.7348 31.0001 41 31.0001Z" fill="white"/>
<path d="M45 44.0001C45.2652 44.0001 45.5196 43.8948 45.7071 43.7072C45.8946 43.5197 46 43.2653 46 43.0001C46 42.7349 45.8946 42.4805 45.7071 42.293C45.5196 42.1055 45.2652 42.0001 45 42.0001C44.2043 42.0001 43.4413 41.684 42.8787 41.1214C42.3161 40.5588 42 39.7958 42 39.0001V34.0001C42 33.7349 41.8946 33.4805 41.7071 33.293C41.5196 33.1055 41.2652 33.0001 41 33.0001C40.7348 33.0001 40.4804 33.1055 40.2929 33.293C40.1054 33.4805 40 33.7349 40 34.0001V39.0001C40.0016 40.3257 40.5289 41.5966 41.4662 42.5339C42.4036 43.4712 43.6744 43.9985 45 44.0001Z" fill="white"/>
<path d="M58 27.0001H54V26.0001C54 25.4697 53.7893 24.961 53.4142 24.5859C53.0391 24.2108 52.5304 24.0001 52 24.0001H48V13.0001C48 12.2045 47.6839 11.4414 47.1213 10.8788C46.5587 10.3162 45.7956 10.0001 45 10.0001H38V7.00013C38 6.20448 37.6839 5.44142 37.1213 4.87881C36.5587 4.3162 35.7956 4.00013 35 4.00013H22.834C22.7006 4.00018 22.5684 3.97368 22.4454 3.92217C22.3223 3.87067 22.2106 3.79519 22.117 3.70013L19.294 0.880133C19.0157 0.600287 18.6847 0.378415 18.3202 0.227362C17.9556 0.0763091 17.5646 -0.000924331 17.17 0.000132777H3C2.20435 0.000132777 1.44129 0.316203 0.878679 0.878812C0.31607 1.44142 0 2.20448 0 3.00013L0 35.7591C0.00327503 36.6114 0.177346 37.4544 0.511929 38.2383C0.846512 39.0222 1.33482 39.7311 1.948 40.3231C3.02906 41.388 4.4826 41.9896 6 42.0001H36.525C37.3084 44.1982 38.9121 46.0079 41 47.0501V52.0001C39.6744 52.0017 38.4036 52.529 37.4662 53.4663C36.5289 54.4037 36.0016 55.6745 36 57.0001V58.0001C36 58.5306 36.2107 59.0393 36.5858 59.4143C36.9608 59.7894 37.4696 60.0001 38 60.0001H52C52.5304 60.0001 53.0391 59.7894 53.4142 59.4143C53.7893 59.0393 54 58.5306 54 58.0001V57.0001C53.9984 55.6745 53.4711 54.4037 52.5338 53.4663C51.5964 52.529 50.3256 52.0017 49 52.0001V47.0501C50.1638 46.4696 51.1884 45.6443 52.0034 44.6308C52.8185 43.6172 53.4047 42.4394 53.722 41.1781C55.6767 39.8087 57.2693 37.9848 58.3629 35.8634C59.4566 33.742 60.0183 31.3867 60 29.0001C60 28.4697 59.7893 27.961 59.4142 27.5859C59.0391 27.2108 58.5304 27.0001 58 27.0001ZM45 12.0001C45.2652 12.0001 45.5196 12.1055 45.7071 12.293C45.8946 12.4806 46 12.7349 46 13.0001V24.0001H38C37.4696 24.0001 36.9608 24.2108 36.5858 24.5859C36.2107 24.961 36 25.4697 36 26.0001V27.0001H32C31.4696 27.0001 30.9609 27.2108 30.5858 27.5859C30.2107 27.961 30 28.4697 30 29.0001C29.9967 30.9706 30.3831 32.9223 31.1371 34.7429C31.891 36.5634 32.9975 38.2169 34.393 39.6081C34.529 39.7441 34.683 39.8691 34.826 40.0001H10.469C11.4553 38.9013 12.0005 37.4767 12 36.0001V13.0001C12 12.7349 12.1054 12.4806 12.2929 12.293C12.4804 12.1055 12.7348 12.0001 13 12.0001H45ZM35.809 38.1941C34.5992 36.9885 33.6398 35.5555 32.9861 33.9776C32.3324 32.3997 31.9972 30.7081 32 29.0001H36V38.3671C35.938 38.3081 35.868 38.2541 35.809 38.1941ZM2 35.7591V3.00013C2 2.73492 2.10536 2.48056 2.29289 2.29303C2.48043 2.10549 2.73478 2.00013 3 2.00013H17.17C17.3019 1.9999 17.4325 2.02575 17.5544 2.07621C17.6762 2.12667 17.7869 2.20073 17.88 2.29413L20.7 5.11713C20.9794 5.39841 21.312 5.62132 21.6783 5.77291C22.0447 5.92449 22.4375 6.00173 22.834 6.00013H35C35.2652 6.00013 35.5196 6.10549 35.7071 6.29303C35.8946 6.48056 36 6.73491 36 7.00013V10.0001H13C12.2043 10.0001 11.4413 10.3162 10.8787 10.8788C10.3161 11.4414 10 12.2045 10 13.0001V36.0001C10.0045 37.0373 9.60438 38.0353 8.88474 38.7822C8.1651 39.5291 7.18262 39.966 6.146 40.0001C5.62718 40.011 5.11142 39.918 4.62903 39.7267C4.14665 39.5354 3.70736 39.2496 3.337 38.8861C2.91642 38.4808 2.5814 37.9952 2.35175 37.4581C2.12211 36.921 2.0025 36.3433 2 35.7591ZM52 57.0001V58.0001H38V57.0001C38 56.2045 38.3161 55.4414 38.8787 54.8788C39.4413 54.3162 40.2043 54.0001 41 54.0001H49C49.7956 54.0001 50.5587 54.3162 51.1213 54.8788C51.6839 55.4414 52 56.2045 52 57.0001ZM47 52.0001H43V47.7681C44.3154 48.0774 45.6846 48.0774 47 47.7681V52.0001ZM52 39.0001C52 40.8566 51.2625 42.6371 49.9497 43.9499C48.637 45.2626 46.8565 46.0001 45 46.0001C43.1435 46.0001 41.363 45.2626 40.0502 43.9499C38.7375 42.6371 38 40.8566 38 39.0001V26.0001H52V39.0001ZM54.193 38.1921C54.133 38.2531 54.062 38.3081 54 38.3671V29.0001H58C58.0029 30.7076 57.668 32.3988 57.0146 33.9764C56.3612 35.5539 55.4023 36.9867 54.193 38.1921Z" fill="white"/>
</svg>
