<svg width="60" height="60" viewBox="0 0 60 60" fill="none" xmlns="http://www.w3.org/2000/svg">
<path d="M59.1908 43.8365C58.8175 43.3001 58.8175 42.6339 59.1908 42.0978C60.0289 40.8937 60.23 39.2509 59.7284 37.7037C59.2269 36.1564 58.1011 34.9458 56.7169 34.4654C56.1005 34.2515 55.7099 33.7125 55.6974 33.0589C55.6694 31.5909 54.8689 30.1436 53.5558 29.1873C52.2428 28.2311 50.6221 27.9149 49.2205 28.3418C48.5963 28.5318 47.9644 28.3261 47.571 27.8046C46.6876 26.6335 45.1912 25.9343 43.5684 25.9342C43.5682 25.9342 43.5682 25.9342 43.5681 25.9342C41.9453 25.9342 40.4487 26.6334 39.5653 27.8045C39.1718 28.3261 38.5399 28.5322 37.9157 28.3419C37.0534 28.0792 36.1083 28.0989 35.2027 28.3747C32.2249 25.8172 28.6422 24.1458 24.8337 23.5075C29.7376 22.0004 33.3137 17.4194 33.3137 12.0163C33.3137 5.39044 27.9362 -9.15527e-05 21.3262 -9.15527e-05C14.7163 -9.15527e-05 9.33874 5.39044 9.33874 12.0163C9.33874 17.4198 12.9154 22.0012 17.82 23.5078C8.29471 25.1092 0.749451 33.1138 0.0066076 43.0392C-0.0425702 43.6977 0.184495 44.3512 0.629801 44.8323C1.07511 45.3134 1.7083 45.5893 2.36702 45.5893H27.2239C27.0651 46.4348 27.1217 47.3479 27.4077 48.2303C27.9092 49.7776 29.035 50.9882 30.4193 51.4687C31.0357 51.6825 31.4264 52.2215 31.4389 52.875C31.4669 54.3431 32.2673 55.7905 33.5804 56.7468C34.8934 57.7031 36.5139 58.0193 37.9156 57.5923C38.5398 57.4021 39.1718 57.608 39.5652 58.1295C40.4486 59.3007 41.9451 59.9999 43.5681 59.9999C45.191 59.9999 46.6876 59.3006 47.571 58.1295C47.9644 57.608 48.5966 57.4022 49.2205 57.5923C50.6222 58.0192 52.2427 57.7033 53.5557 56.7469C54.8688 55.7906 55.6694 54.3433 55.6974 52.8753C55.7099 52.2216 56.1006 51.6826 56.7169 51.4687C58.1011 50.9883 59.2269 49.7779 59.7284 48.2306C60.2299 46.6833 60.0289 45.0406 59.1908 43.8365ZM11.2213 12.0162C11.2213 6.43085 15.7544 1.88674 21.3264 1.88674C26.8983 1.88674 31.4314 6.43085 31.4314 12.0162C31.4314 17.6016 26.8984 22.1457 21.3264 22.1457C15.7543 22.1457 11.2213 17.6016 11.2213 12.0162ZM27.4079 37.7035C26.9064 39.2508 27.1072 40.8935 27.9454 42.0978C28.2882 42.5903 28.3152 43.1922 28.0284 43.7025H2.36702C2.17972 43.7025 2.06278 43.6064 2.0096 43.5491C1.95654 43.4917 1.86972 43.3677 1.88372 43.1805C2.64244 33.043 11.1827 25.1019 21.3262 25.1019C25.7182 25.1019 29.9575 26.5947 33.3975 29.3282C32.194 30.2824 31.4656 31.6607 31.4389 33.0588C31.4264 33.7126 31.0358 34.2516 30.4194 34.4655C29.0353 34.9456 27.9095 36.1561 27.4079 37.7035ZM57.647 44.9161C58.1496 45.6383 58.2584 46.6593 57.938 47.6475C57.6178 48.6357 56.9309 49.3976 56.101 49.6856C54.7401 50.158 53.8429 51.3958 53.8152 52.8393C53.7984 53.7196 53.2878 54.6097 52.4492 55.2205C51.6105 55.8312 50.6081 56.043 49.7678 55.7871C48.3898 55.3672 46.938 55.84 46.0695 56.9915C45.5397 57.6938 44.6045 58.1131 43.568 58.1131C42.5315 58.1131 41.5963 57.6937 41.0665 56.9914C40.4083 56.1188 39.4153 55.636 38.373 55.636C38.0401 55.636 37.7018 55.6853 37.3682 55.787C36.5279 56.043 35.5254 55.8312 34.6868 55.2204C33.8483 54.6096 33.3376 53.7194 33.3209 52.8392C33.2934 51.3958 32.3962 50.158 31.0351 49.6858C30.2051 49.3976 29.5183 48.6357 29.198 47.6475C28.8777 46.6593 28.9866 45.6383 29.4893 44.9161C30.3133 43.7321 30.3132 42.2021 29.4892 41.0181C28.9866 40.296 28.8777 39.2749 29.1981 38.2867C29.5185 37.2985 30.2052 36.5366 31.0352 36.2486C32.3961 35.7764 33.2933 34.5385 33.3209 33.095C33.3377 32.2148 33.8483 31.3246 34.6869 30.7139C35.5254 30.1032 36.528 29.8914 37.3683 30.1475C38.7463 30.5674 40.1979 30.0946 41.0666 28.9428C41.5964 28.2405 42.5316 27.8213 43.5682 27.8214C44.6049 27.8214 45.5398 28.2406 46.0696 28.9429C46.9381 30.0944 48.39 30.5673 49.7679 30.1474C50.6083 29.8915 51.6108 30.1032 52.4494 30.7141C53.2879 31.3248 53.7986 32.215 53.8153 33.0953C53.8429 34.5387 54.7401 35.7765 56.101 36.2488C56.9311 36.5369 57.6178 37.2988 57.9381 38.2871C58.2584 39.2752 58.1496 40.2964 57.647 41.0184C56.8228 42.2019 56.8228 43.732 57.647 44.9161ZM43.5681 32.369C37.7384 32.369 32.9956 37.1233 32.9956 42.9671C32.9956 48.8108 37.7384 53.5651 43.5681 53.5651C49.3978 53.5651 54.1406 48.8109 54.1406 42.9671C54.1406 37.1232 49.3978 32.369 43.5681 32.369ZM43.5681 51.6781C38.7763 51.6781 34.878 47.7704 34.878 42.9671C34.878 38.1637 38.7763 34.256 43.5681 34.256C48.3599 34.256 52.2582 38.1637 52.2582 42.9671C52.2582 47.7703 48.3599 51.6781 43.5681 51.6781ZM45.981 38.1711C45.9807 38.1715 45.9802 38.172 45.9797 38.1724L42.0811 42.1171L41.1238 41.1816C40.0705 40.1547 38.3801 40.178 37.3555 41.2339C36.331 42.2898 36.3545 43.9842 37.407 45.0105L40.2558 47.7939C40.7706 48.296 41.4418 48.5466 42.1129 48.5465C42.7993 48.5465 43.4855 48.2845 44.0044 47.7615L49.7596 41.9382C50.2615 41.4323 50.5368 40.7607 50.5349 40.0472C50.533 39.3337 50.2538 38.6638 49.7492 38.1606C48.7076 37.1221 47.0172 37.1267 45.981 38.1711ZM48.422 39.4987C48.5701 39.6464 48.6521 39.8431 48.6526 40.0525C48.6531 40.262 48.5724 40.4592 48.4238 40.609L42.6686 46.4323C42.3677 46.7355 41.8744 46.7398 41.5692 46.4421L38.7203 43.6586C38.4112 43.3571 38.4042 42.8596 38.705 42.5496C38.8508 42.3994 39.0461 42.3151 39.2551 42.3122H39.2662C39.4711 42.3122 39.6644 42.3908 39.8107 42.5335L41.4358 44.1215C41.8061 44.4831 42.3977 44.478 42.7615 44.11L47.3159 39.5018C47.6199 39.1953 48.1161 39.1939 48.422 39.4987Z" fill="white"/>
</svg>
