<svg width="95" height="60" viewBox="0 0 95 60" fill="none" xmlns="http://www.w3.org/2000/svg">
<path d="M81.7264 26.4009C84.4936 24.4563 86.326 21.2217 86.326 17.5757C86.326 11.6112 81.502 6.78728 75.5376 6.78728C69.5731 6.78728 64.7491 11.6112 64.7491 17.5757C64.7491 21.2217 66.5628 24.4563 69.3487 26.4009C66.9741 27.2236 64.8052 28.495 62.9729 30.1404C60.4487 27.9902 57.4758 26.3448 54.2225 25.3725C58.1677 22.9792 60.8227 18.6227 60.8227 13.6679C60.8227 6.11418 54.7086 0.00012207 47.1549 0.00012207C39.6011 0.00012207 33.4871 6.13287 33.4871 13.6679C33.4871 18.6227 36.1234 22.9792 40.0873 25.3725C36.8713 26.3448 33.9358 27.9715 31.4304 30.0843C29.598 28.4763 27.4665 27.2236 25.1293 26.4196C27.8965 24.475 29.7289 21.2404 29.7289 17.5944C29.7289 11.6299 24.905 6.80598 18.9405 6.80598C12.976 6.80598 8.15207 11.6299 8.15207 17.5944C8.15207 21.2404 9.96572 24.475 12.7516 26.4196C5.32876 28.9811 0 36.03 0 44.313V45.547C0 45.5844 0.0373948 45.6218 0.0747897 45.6218H22.9417C22.8108 46.6502 22.7361 47.7159 22.7361 48.7817V50.0531C22.7361 55.5501 27.186 60.0001 32.6831 60.0001H61.6641C67.1611 60.0001 71.6111 55.5501 71.6111 50.0531V48.7817C71.6111 47.7159 71.5363 46.6502 71.4054 45.6218H94.4219C94.4593 45.6218 94.4967 45.5844 94.4967 45.547V44.313C94.4593 36.0113 89.1493 28.9624 81.7264 26.4009ZM67.7407 17.557C67.7407 13.2566 71.2371 9.76017 75.5376 9.76017C79.838 9.76017 83.3344 13.2566 83.3344 17.557C83.3344 21.8013 79.9127 25.2603 75.6871 25.3538C75.631 25.3538 75.5936 25.3538 75.5376 25.3538C75.4815 25.3538 75.4441 25.3538 75.388 25.3538C71.1437 25.279 67.7407 21.82 67.7407 17.557ZM36.4413 13.6679C36.4413 7.77825 41.2278 2.99171 47.1175 2.99171C53.0072 2.99171 57.7937 7.77825 57.7937 13.6679C57.7937 19.3519 53.325 24.0076 47.7345 24.3255C47.5288 24.3255 47.3232 24.3255 47.1175 24.3255C46.9118 24.3255 46.7061 24.3255 46.5005 24.3255C40.9099 24.0076 36.4413 19.3519 36.4413 13.6679ZM11.0876 17.557C11.0876 13.2566 14.584 9.76017 18.8844 9.76017C23.1848 9.76017 26.6812 13.2566 26.6812 17.557C26.6812 21.8013 23.2596 25.2603 19.034 25.3538C18.9779 25.3538 18.9405 25.3538 18.8844 25.3538C18.8283 25.3538 18.7909 25.3538 18.7348 25.3538C14.5092 25.279 11.0876 21.82 11.0876 17.557ZM23.4653 42.6115H3.02898C3.87036 34.6464 10.6014 28.4015 18.7722 28.3454C18.8096 28.3454 18.847 28.3454 18.8844 28.3454C18.9218 28.3454 18.9592 28.3454 18.9966 28.3454C22.8856 28.3641 26.4381 29.8038 29.1867 32.141C26.4942 35.0578 24.4936 38.6477 23.4653 42.6115ZM68.5821 50.0531C68.5821 53.8861 65.4596 57.0085 61.6267 57.0085H32.6457C28.8127 57.0085 25.6902 53.8861 25.6902 50.0531V48.7817C25.6902 37.1706 34.9642 27.6723 46.5005 27.3357C46.7061 27.3544 46.9305 27.3544 47.1362 27.3544C47.3419 27.3544 47.5662 27.3544 47.7719 27.3357C59.3082 27.6723 68.5821 37.1706 68.5821 48.7817V50.0531ZM70.8071 42.6115C69.7787 38.6664 67.8155 35.1326 65.1418 32.2158C67.909 29.8225 71.4989 28.3828 75.4254 28.3454C75.4628 28.3454 75.5002 28.3454 75.5376 28.3454C75.5749 28.3454 75.6123 28.3454 75.6497 28.3454C83.8205 28.4015 90.5516 34.6464 91.393 42.6115H70.8071Z" fill="white"/>
</svg>
