<svg width="60" height="60" viewBox="0 0 60 60" fill="none" xmlns="http://www.w3.org/2000/svg">
<path d="M56.7917 36.887C56.3138 37.0188 56.0358 37.5045 56.1706 37.9716C56.5759 39.3756 56.7815 40.8349 56.7815 42.3087C56.7815 51.0932 49.4712 58.2397 40.4858 58.2397C35.8119 58.2397 31.3563 56.273 28.2616 52.8437C27.9332 52.48 27.3651 52.4452 26.9927 52.7661C26.6204 53.0872 26.5849 53.6426 26.9133 54.0067C30.3493 57.814 35.2962 59.9976 40.4858 59.9976C50.4627 59.9976 58.5795 52.0623 58.5795 42.3087C58.5795 40.6734 58.3513 39.0536 57.9009 37.4942C57.7662 37.0269 57.2692 36.7553 56.7917 36.887Z" fill="white"/>
<path d="M21.1512 20.5639C16.8212 20.5639 13.0574 23.4274 11.9983 27.5275C11.8766 27.9981 12.1684 28.476 12.6498 28.5947C13.1314 28.7139 13.62 28.4284 13.7416 27.9577C14.5988 24.6394 17.6457 22.3216 21.1512 22.3216C25.3653 22.3216 28.7937 25.6734 28.7937 29.7933C28.7937 33.9131 25.3652 37.2649 21.1512 37.2649C17.6457 37.2649 14.5988 34.9473 13.7416 31.6289C13.62 31.1582 13.1311 30.8727 12.6498 30.9919C12.1684 31.1107 11.8766 31.5886 11.9983 32.0591C13.0574 36.1592 16.8212 39.0226 21.1512 39.0226C26.3568 39.0226 30.5918 34.8823 30.5918 29.7932C30.5918 24.7041 26.3567 20.5639 21.1512 20.5639Z" fill="white"/>
<path d="M26.2189 29.7934C26.2189 27.062 23.9459 24.8398 21.152 24.8398C18.358 24.8398 16.085 27.062 16.085 29.7934C16.085 32.5248 18.3579 34.747 21.152 34.747C23.9458 34.7469 26.2189 32.5247 26.2189 29.7934ZM17.883 29.7934C17.883 28.0313 19.3494 26.5976 21.152 26.5976C22.9544 26.5976 24.4208 28.0311 24.4208 29.7934C24.4208 31.5557 22.9544 32.9892 21.152 32.9892C19.3495 32.9891 17.883 31.5556 17.883 29.7934Z" fill="white"/>
<path d="M39.1522 47.4945H39.1544C39.4122 47.4945 39.6575 47.3863 39.8282 47.1975L46.8282 39.4519C47.1571 39.0881 47.1218 38.5327 46.7497 38.2113C46.3775 37.8898 45.8095 37.9242 45.4808 38.288L39.1578 45.2843L35.4937 41.1888C35.1669 40.8235 34.5989 40.7863 34.2252 41.1059C33.8514 41.4256 33.8134 41.9808 34.1403 42.3461L38.4778 47.1941C38.6479 47.3843 38.8936 47.4938 39.1522 47.4945Z" fill="white"/>
<path d="M60 19.7653C60 18.6439 59.4838 17.6388 58.6723 16.9631C59.4838 16.2873 60 15.2822 60 14.1608C60 12.1311 58.3108 10.4797 56.2345 10.4797L40.7992 10.4796V6.00011C40.7992 4.38468 40.1522 2.86922 38.9776 1.73308C37.803 0.596949 36.2472 -0.0154733 34.594 -0.00223108C33.4556 0.00972205 32.5295 0.924722 32.5295 2.03765V5.03648C32.5295 5.52199 32.932 5.91539 33.4285 5.91539C33.925 5.91539 34.3275 5.52199 34.3275 5.03648V2.03765C34.3275 1.88379 34.4556 1.75711 34.6131 1.75558C34.629 1.75535 34.6448 1.75523 34.6607 1.75523C35.8114 1.75523 36.8938 2.19011 37.7131 2.98265C38.5438 3.78609 39.0012 4.85789 39.0012 6.00023V10.5756C39.0012 11.4919 39.7637 12.2374 40.7011 12.2374H45.6803C45.3276 12.7976 45.1238 13.4563 45.1238 14.1608C45.1238 15.2822 45.64 16.2873 46.4515 16.9631C45.64 17.6388 45.1238 18.6441 45.1238 19.7653C45.1238 20.8867 45.64 21.8919 46.4515 22.5676C45.64 23.2433 45.1238 24.2486 45.1238 25.3699C45.1238 26.7716 45.9296 27.9926 47.112 28.6141C46.5639 29.2536 46.2333 30.0769 46.2333 30.9744C46.2333 31.2013 46.2555 31.423 46.2959 31.6386C44.5627 30.7329 42.5847 30.2186 40.486 30.2186C38.8214 30.2186 37.2332 30.5425 35.7824 31.1279C34.8523 30.1316 34.3277 28.8253 34.3277 27.4665V9.13805C34.3277 8.65254 33.9251 8.25914 33.4286 8.25914C32.9321 8.25914 32.5296 8.65254 32.5296 9.13805V12.8704C31.822 12.8845 31.1286 13.1588 30.6051 13.6706L28.5707 15.6596C28.2787 15.9452 27.8359 16.0298 27.4688 15.8709C27.2335 15.7691 26.993 15.6718 26.7538 15.5818C26.3797 15.4412 26.1283 15.0751 26.1283 14.6709V11.8579C26.1283 10.3457 24.8698 9.11531 23.323 9.11531H18.9803C17.4334 9.11531 16.175 10.3457 16.175 11.8579V14.6709C16.175 15.0751 15.9236 15.4412 15.5494 15.5818C15.3102 15.6718 15.0698 15.7691 14.8342 15.8709C14.4671 16.0298 14.0245 15.9451 13.7325 15.6596L11.6981 13.6706C10.6043 12.6013 8.82444 12.6013 7.73063 13.6706L4.65993 16.6726C3.56612 17.7421 3.56612 19.482 4.65993 20.5514L6.69448 22.5404C6.98636 22.8258 7.07326 23.2586 6.91048 23.6174C6.80667 23.8466 6.70718 24.0818 6.61476 24.3166C6.47092 24.6824 6.09645 24.9281 5.68302 24.9281H2.80531C1.25839 24.9281 0 26.1585 0 27.6707V31.9163C0 33.4284 1.25851 34.6588 2.80531 34.6588H5.68278C6.09621 34.6588 6.47068 34.9045 6.61452 35.2704C6.70694 35.5051 6.80631 35.7403 6.91024 35.9697C7.0729 36.3285 6.986 36.7613 6.69412 37.0465L4.65957 39.0355C3.56576 40.105 3.56576 41.8449 4.65957 42.9143L7.73027 45.9163C8.82408 46.9856 10.6039 46.9856 11.6977 45.9163L13.7321 43.9273C14.0241 43.6417 14.4669 43.5571 14.834 43.716C15.0701 43.8182 15.3108 43.9154 15.5489 44.005C15.9231 44.1457 16.1745 44.5118 16.1745 44.9159V47.7291C16.1745 49.2413 17.433 50.4716 18.9798 50.4716H23.3225C24.8695 50.4716 26.1279 49.2413 26.1279 47.7291V44.9159C26.1279 44.5118 26.3793 44.1457 26.7531 44.0051C26.9916 43.9154 27.2323 43.8182 27.4686 43.7159C27.7026 43.6146 27.9634 43.6125 28.2002 43.6984C28.4436 45.7899 29.2358 47.7666 30.5293 49.4802C30.8242 49.8709 31.3871 49.9536 31.7865 49.6656C32.1861 49.3773 32.2709 48.8271 31.9762 48.4365C30.6291 46.6519 29.9169 44.5328 29.9169 42.3087C29.9169 36.6115 34.658 31.9764 40.4856 31.9764C46.3132 31.9764 51.0543 36.6115 51.0543 42.3087C51.0543 48.0059 46.3132 52.641 40.4856 52.641C38.4633 52.641 36.498 52.081 34.8023 51.0215C34.3841 50.76 33.8282 50.8794 33.5607 51.2886C33.2933 51.6976 33.4157 52.2411 33.834 52.5025C35.8193 53.743 38.1194 54.3988 40.4856 54.3988C47.3046 54.3988 52.8523 48.9752 52.8523 42.3087C52.8523 39.4072 51.801 36.7415 50.0519 34.6555H54.109C56.1853 34.6555 57.8745 33.0041 57.8745 30.9744C57.8745 30.2139 57.6372 29.5064 57.2314 28.919C58.8252 28.4905 59.9998 27.0621 59.9998 25.3697C59.9998 24.2483 59.4836 23.2432 58.6721 22.5675C59.4838 21.8918 60 20.8867 60 19.7653ZM28.1273 41.8913C27.6617 41.8464 27.185 41.9162 26.7405 42.1086C26.5318 42.199 26.3192 42.285 26.1082 42.3642C25.0446 42.7642 24.3302 43.7896 24.3302 44.9158V47.729C24.3302 48.272 23.8783 48.7137 23.3229 48.7137H18.9801C18.4247 48.7137 17.9729 48.2719 17.9729 47.729V44.9158C17.9729 43.7896 17.2583 42.7642 16.1944 42.3641C15.9838 42.285 15.7712 42.1991 15.5625 42.1086C14.5211 41.6575 13.2746 41.8887 12.4609 42.6842L10.4265 44.6731C10.0338 45.0571 9.39466 45.0571 9.00185 44.6731L5.93115 41.6711C5.53845 41.2872 5.53845 40.6624 5.93115 40.2784L7.96569 38.2894C8.77937 37.4939 9.01587 36.2754 8.55437 35.2573C8.46255 35.0547 8.37457 34.8468 8.29294 34.6393C7.88394 33.5995 6.83508 32.9009 5.6829 32.9009H2.80531C2.24983 32.9009 1.79804 32.4591 1.79804 31.9161V27.6706C1.79804 27.1275 2.24995 26.6858 2.80531 26.6858H5.68278C6.83496 26.6858 7.88382 25.9872 8.2927 24.9475C8.37433 24.7399 8.46231 24.5319 8.55413 24.3295C9.01575 23.3113 8.77913 22.0928 7.96557 21.2973L5.93103 19.3083C5.53833 18.9244 5.53833 18.2997 5.93103 17.9156L9.00173 14.9136C9.39454 14.5296 10.0336 14.5296 10.4264 14.9136L12.4608 16.9027C13.2745 17.6981 14.5209 17.9295 15.5623 17.4781C15.7705 17.3878 15.9832 17.3019 16.1945 17.2223C17.2581 16.8225 17.9726 15.7971 17.9726 14.6708V11.8577C17.9726 11.3147 18.4246 10.873 18.9799 10.873H23.3227C23.8781 10.873 24.3299 11.3148 24.3299 11.8577V14.6708C24.3299 15.7971 25.0445 16.8225 26.1081 17.2223C26.3194 17.3019 26.5322 17.3878 26.7401 17.4781C27.7816 17.9292 29.0282 17.698 29.8418 16.9025L31.8763 14.9135C32.0547 14.7391 32.2886 14.6438 32.5294 14.6302V27.4665C32.5294 29.1009 33.1046 30.6763 34.1326 31.9397C30.6473 33.9885 28.2746 37.6684 28.1273 41.8913ZM54.1094 32.8977H50.0016C50.0006 32.8977 49.9996 32.8976 49.9987 32.8976H49.9958C48.9123 32.8961 48.0314 32.034 48.0314 30.9744C48.0314 29.9139 48.914 29.051 49.9988 29.051H54.1095C55.1943 29.051 56.0769 29.9139 56.0769 30.9744C56.0769 32.035 55.1942 32.8977 54.1094 32.8977ZM56.2347 27.2932H48.8893C47.8045 27.2932 46.9219 26.4304 46.9219 25.3698C46.9219 24.3093 47.8045 23.4465 48.8893 23.4465H56.2347C57.3195 23.4465 58.2021 24.3094 58.2021 25.3699C58.2021 26.4305 57.3195 27.2932 56.2347 27.2932ZM56.2347 21.6887H48.8893C47.8045 21.6887 46.9219 20.8259 46.9219 19.7653C46.9219 18.7048 47.8045 17.842 48.8893 17.842H56.2347C57.3195 17.842 58.2021 18.7048 58.2021 19.7653C58.2021 20.8259 57.3195 21.6887 56.2347 21.6887ZM56.2347 16.0842H48.8893C47.8045 16.0842 46.9219 15.2214 46.9219 14.1608C46.9219 13.1003 47.8045 12.2375 48.8893 12.2375H56.2347C57.3195 12.2375 58.2021 13.1003 58.2021 14.1608C58.2021 15.2214 57.3195 16.0842 56.2347 16.0842Z" fill="white"/>
</svg>
