<svg width="20" height="19" viewBox="0 0 20 19" fill="none" xmlns="http://www.w3.org/2000/svg">
<path d="M13.3333 11.0833C13.3333 11.5203 12.96 11.875 12.5 11.875H11.6667C11.2067 11.875 10.8333 11.5203 10.8333 11.0833C10.8333 10.6463 11.2067 10.2917 11.6667 10.2917H12.5C12.96 10.2917 13.3333 10.6463 13.3333 11.0833ZM15.8333 10.2917H15C14.54 10.2917 14.1667 10.6463 14.1667 11.0833C14.1667 11.5203 14.54 11.875 15 11.875H15.8333C16.2933 11.875 16.6667 11.5203 16.6667 11.0833C16.6667 10.6463 16.2933 10.2917 15.8333 10.2917ZM12.5 13.4583H11.6667C11.2067 13.4583 10.8333 13.813 10.8333 14.25C10.8333 14.687 11.2067 15.0417 11.6667 15.0417H12.5C12.96 15.0417 13.3333 14.687 13.3333 14.25C13.3333 13.813 12.96 13.4583 12.5 13.4583ZM15.8333 13.4583H15C14.54 13.4583 14.1667 13.813 14.1667 14.25C14.1667 14.687 14.54 15.0417 15 15.0417H15.8333C16.2933 15.0417 16.6667 14.687 16.6667 14.25C16.6667 13.813 16.2933 13.4583 15.8333 13.4583ZM12.5 3.95833H11.6667C11.2067 3.95833 10.8333 4.313 10.8333 4.75C10.8333 5.187 11.2067 5.54167 11.6667 5.54167H12.5C12.96 5.54167 13.3333 5.187 13.3333 4.75C13.3333 4.313 12.96 3.95833 12.5 3.95833ZM15.8333 3.95833H15C14.54 3.95833 14.1667 4.313 14.1667 4.75C14.1667 5.187 14.54 5.54167 15 5.54167H15.8333C16.2933 5.54167 16.6667 5.187 16.6667 4.75C16.6667 4.313 16.2933 3.95833 15.8333 3.95833ZM12.5 7.125H11.6667C11.2067 7.125 10.8333 7.47967 10.8333 7.91667C10.8333 8.35367 11.2067 8.70833 11.6667 8.70833H12.5C12.96 8.70833 13.3333 8.35367 13.3333 7.91667C13.3333 7.47967 12.96 7.125 12.5 7.125ZM15.8333 7.125H15C14.54 7.125 14.1667 7.47967 14.1667 7.91667C14.1667 8.35367 14.54 8.70833 15 8.70833H15.8333C16.2933 8.70833 16.6667 8.35367 16.6667 7.91667C16.6667 7.47967 16.2933 7.125 15.8333 7.125ZM20 3.95833V15.0417C20 17.2243 18.1308 19 15.8333 19H4.16667C1.86917 19 0 17.2243 0 15.0417V7.32925C0 6.25971 0.465 5.22025 1.27583 4.47846L2.84917 3.03921C3.82167 2.14858 5.345 2.14937 6.3175 3.03921L7.5 4.12142V3.95833C7.5 1.77571 9.36917 0 11.6667 0H15.8333C18.1308 0 20 1.77571 20 3.95833ZM7.5 7.32925C7.5 6.68721 7.22083 6.06417 6.73417 5.61846L5.16083 4.17921C4.99917 4.03038 4.79083 3.95675 4.58333 3.95675C4.37583 3.95675 4.1675 4.03038 4.00583 4.17921L2.4325 5.61846C1.94583 6.06337 1.66667 6.68721 1.66667 7.32925V15.0417C1.66667 16.3511 2.78833 17.4167 4.16667 17.4167H7.5V7.32925ZM18.3333 3.95833C18.3333 2.64892 17.2117 1.58333 15.8333 1.58333H11.6667C10.2883 1.58333 9.16667 2.64892 9.16667 3.95833V17.4167H15.8333C17.2117 17.4167 18.3333 16.3511 18.3333 15.0417V3.95833ZM5 10.2917H4.16667C3.70667 10.2917 3.33333 10.6463 3.33333 11.0833C3.33333 11.5203 3.70667 11.875 4.16667 11.875H5C5.46 11.875 5.83333 11.5203 5.83333 11.0833C5.83333 10.6463 5.46 10.2917 5 10.2917ZM5 7.125H4.16667C3.70667 7.125 3.33333 7.47967 3.33333 7.91667C3.33333 8.35367 3.70667 8.70833 4.16667 8.70833H5C5.46 8.70833 5.83333 8.35367 5.83333 7.91667C5.83333 7.47967 5.46 7.125 5 7.125ZM5 13.4583H4.16667C3.70667 13.4583 3.33333 13.813 3.33333 14.25C3.33333 14.687 3.70667 15.0417 4.16667 15.0417H5C5.46 15.0417 5.83333 14.687 5.83333 14.25C5.83333 13.813 5.46 13.4583 5 13.4583Z" fill="white"/>
</svg>
