<svg width="19" height="19" viewBox="0 0 19 19" fill="none" xmlns="http://www.w3.org/2000/svg">
<path d="M15.8333 7.91667V13.4583C15.8333 14.3315 15.1232 15.0417 14.25 15.0417H8.70833C7.83512 15.0417 7.125 14.3315 7.125 13.4583V7.125C7.125 6.688 7.47888 6.33333 7.91667 6.33333C8.35446 6.33333 8.70833 6.688 8.70833 7.125V13.4583H11.0833V11.0833C11.0833 10.6463 11.4372 10.2917 11.875 10.2917C12.3128 10.2917 12.6667 10.6463 12.6667 11.0833V13.4583H14.25V7.91667H11.0833C10.6455 7.91667 10.2917 7.562 10.2917 7.125C10.2917 6.688 10.6455 6.33333 11.0833 6.33333H14.25C15.1232 6.33333 15.8333 7.04346 15.8333 7.91667ZM19 7.125V15.0417C19 17.2275 17.2275 19 15.0417 19H2.88404C1.29121 19 0 17.7088 0 16.116V2.77083C0 1.24054 1.24054 0 2.77083 0H3.16667C4.47846 0 5.54167 1.06321 5.54167 2.375V3.16667H15.0417C17.2275 3.16667 19 4.93921 19 7.125ZM1.58333 13.7259C1.95067 13.5518 2.35679 13.4583 2.77083 13.4583H3.16667C3.60367 13.4583 3.95833 13.1029 3.95833 12.6667V2.375C3.95833 1.93879 3.60367 1.58333 3.16667 1.58333H2.77083C2.11613 1.58333 1.58333 2.11613 1.58333 2.77083V13.7259ZM17.4167 7.125C17.4167 5.81321 16.3535 4.75 15.0417 4.75H5.54167V12.6667C5.54167 13.9785 4.47846 15.0417 3.16667 15.0417H2.77083C2.11533 15.0417 1.58333 15.5737 1.58333 16.2292C1.58333 16.8847 2.11533 17.4167 2.77083 17.4167H15.0417C16.3535 17.4167 17.4167 16.3535 17.4167 15.0417V7.125Z" fill="white"/>
</svg>
