<svg width="19" height="19" viewBox="0 0 19 19" fill="none" xmlns="http://www.w3.org/2000/svg">
<path d="M18.8567 4.99621C18.5883 3.05029 16.9013 1.58333 14.934 1.58333H12.6667C12.6667 0.710125 11.9565 0 11.0833 0H7.91667C7.04346 0 6.33333 0.710125 6.33333 1.58333H4.066C2.09792 1.58333 0.411667 3.05108 0.1425 4.99621C-0.0475 6.36263 -0.0475 7.88738 0.1425 9.25379C0.411667 11.1997 2.09792 12.6667 4.066 12.6667H14.9348C16.9021 12.6667 18.5891 11.1989 18.8575 9.25379C19.0483 7.88738 19.0475 6.36263 18.8567 4.99621ZM17.2892 9.03687C17.1277 10.203 16.116 11.0825 14.934 11.0825H4.066C2.88483 11.0825 1.87229 10.203 1.71158 9.03687C1.54138 7.81296 1.54138 6.43625 1.71158 5.21233C1.87308 4.04621 2.88483 3.16667 4.066 3.16667H14.9348C16.116 3.16667 17.1285 4.04621 17.29 5.21233C17.4594 6.43625 17.4586 7.81296 17.2892 9.03687ZM10.8997 6.12117C11.6723 6.89383 11.6723 8.14704 10.8997 8.9205C10.127 9.69317 8.87379 9.69317 8.10112 8.9205C7.32846 8.14783 7.32846 6.89463 8.10112 6.12117L9.01392 5.22738C9.28467 4.96217 9.71771 4.96217 9.98846 5.22738L10.9005 6.12117H10.8997ZM14.6458 13.4583C13.5446 13.4583 12.5994 14.1091 12.1529 15.0417H6.84713C6.40063 14.1091 5.45538 13.4583 4.35417 13.4583C2.82625 13.4583 1.58333 14.7013 1.58333 16.2292C1.58333 17.7571 2.82625 19 4.35417 19C5.74592 19 6.89067 17.9645 7.08463 16.625H11.9146C12.1085 17.9645 13.2533 19 14.645 19C16.173 19 17.4159 17.7571 17.4159 16.2292C17.4159 14.7013 16.1737 13.4583 14.6458 13.4583ZM4.35417 17.4167C3.69946 17.4167 3.16667 16.8839 3.16667 16.2292C3.16667 15.5745 3.69946 15.0417 4.35417 15.0417C5.00888 15.0417 5.54167 15.5745 5.54167 16.2292C5.54167 16.8839 5.00888 17.4167 4.35417 17.4167ZM14.6458 17.4167C13.9911 17.4167 13.4583 16.8839 13.4583 16.2292C13.4583 15.5745 13.9911 15.0417 14.6458 15.0417C15.3005 15.0417 15.8333 15.5745 15.8333 16.2292C15.8333 16.8839 15.3005 17.4167 14.6458 17.4167Z" fill="white"/>
</svg>
