<svg width="18" height="19" viewBox="0 0 18 19" fill="none" xmlns="http://www.w3.org/2000/svg">
<path d="M8.18182 12.2441V12.2678C8.18182 12.8568 7.53382 13.2337 6.99627 12.9582L5.33864 12.1079C5.07436 11.9726 4.90909 11.7066 4.90909 11.4176V11.3939C4.90909 10.8049 5.55709 10.4281 6.09464 10.7036L7.75227 11.5538C8.01655 11.6891 8.18182 11.9551 8.18182 12.2441ZM11.9168 10.7534L10.2592 11.572C9.98918 11.7058 9.819 11.9741 9.819 12.2678V12.3058C9.819 12.8893 10.4564 13.2669 10.9931 13.0017L12.6507 12.1831C12.9207 12.0493 13.0909 11.781 13.0909 11.4873V11.4493C13.0909 10.8658 12.4535 10.4882 11.9168 10.7534ZM18 6.47537V12.5235C18 13.9928 17.1663 15.3331 15.8253 16.021L10.9154 18.5385C10.3165 18.8456 9.65782 19 9 19C8.34218 19 7.68436 18.8464 7.08382 18.5385L2.17555 16.021C0.832909 15.3323 0 13.9928 0 12.5235V6.47537C0 5.00607 0.833727 3.66582 2.17473 2.97788L7.08464 0.460441C8.28409 -0.153876 9.71673 -0.153085 10.9162 0.460441L15.8245 2.97788C17.1663 3.66582 18 5.00607 18 6.47537ZM1.91209 5.3916L7.85045 8.43073C8.57127 8.79964 9.43036 8.80043 10.1495 8.43073L16.0887 5.3916C15.8637 4.96728 15.5119 4.60867 15.0586 4.37592L10.1504 1.85928C9.79036 1.67483 9.39518 1.5822 9.00082 1.5822C8.60645 1.5822 8.21127 1.67483 7.85209 1.85928L2.94218 4.37671C2.48973 4.60867 2.13791 4.96728 1.91291 5.3916H1.91209ZM16.3636 12.5228V10.2365L15.93 10.4724C15.3916 10.7653 14.7273 10.3885 14.7273 9.79157C14.7273 9.50896 14.8852 9.24851 15.1396 9.10997L16.3636 8.44578V7.0414L10.9154 9.82957C10.3165 10.1367 9.65782 10.2911 9 10.2911C8.34218 10.2911 7.68436 10.1375 7.08382 9.82957L1.63636 7.0414V8.40461L2.84727 9.03476C3.10909 9.17092 3.27273 9.43533 3.27273 9.7227V9.74249C3.27273 10.3331 2.62145 10.7099 2.08391 10.4312L1.63636 10.1993V12.5235C1.63636 13.4054 2.13627 14.209 2.94218 14.6222L7.85045 17.1388C8.57127 17.5085 9.43036 17.5085 10.1495 17.1388L15.0595 14.6214C15.8637 14.209 16.3636 13.4046 16.3636 12.5228Z" fill="white"/>
</svg>
