<svg width="57" height="48" viewBox="0 0 57 48" fill="none" xmlns="http://www.w3.org/2000/svg">
<path d="M4.58095 48H0L18.5865 31.6749L29.5872 40.6501L38.6694 33.043L57 48H52.5716L38.7525 36.8883L32.0056 42.6162L38.2542 48H33.0852L18.6712 35.7774L4.58095 48Z" fill="#906E50"/>
<path d="M38.4198 41.1859H37.125V42.2984H38.4198V41.1859Z" fill="#906E50"/>
<path d="M40.3771 41.1859H39.0857V42.2984H40.3771V41.1859Z" fill="#906E50"/>
<path d="M38.4198 42.9162H37.125V44.027H38.4198V42.9162Z" fill="#906E50"/>
<path d="M40.3771 42.9162H39.0857V44.027H40.3771V42.9162Z" fill="#906E50"/>
<path d="M18.1217 40.0937H15.8118V42.0824H18.1217V40.0937Z" fill="#906E50"/>
<path d="M21.6268 40.0937H19.3151V42.0824H21.6268V40.0937Z" fill="#906E50"/>
<path d="M18.1217 43.1927H15.8118V45.1797H18.1217V43.1927Z" fill="#906E50"/>
<path d="M21.6268 43.1927H19.3151V45.1797H21.6268V43.1927Z" fill="#906E50"/>
<path d="M8.86347 38.7658L12.1581 35.9027V13.9782L8.86347 15.9409V38.7658Z" fill="#906E50"/>
<path d="M13.6794 34.6406C13.7404 34.4494 16.1165 32.4624 16.1165 32.4624V11.3063L13.6794 12.5232V34.6406Z" fill="#906E50"/>
<path d="M17.2411 31.4682L18.4292 30.3452L20.5832 32.1096V10.5346L28.5012 14.8945V38.7659L29.5858 39.609L31.3026 38.0097V25.9227L34.6464 23.8384V1.66711L42.0728 5.47069L34.243 0L23.1186 6.53979V10.6858L20.0341 9.01872L17.2411 10.7484" fill="#906E50"/>
<path d="M44.4531 19.8048L32.5321 26.3725V36.9279L38.4214 31.6745L44.1972 36.4168V20.9452L52.3659 24.3212L44.4514 19.8066L44.4531 19.8048ZM36.0725 28.8062L33.4608 30.0265V27.3633L36.0725 26.0526V28.8079V28.8062ZM39.0247 27.3633L36.9775 28.3681V25.5711L39.0247 24.4985V27.3651V27.3633ZM42.7295 25.3955L39.667 26.9339V24.3368L42.7295 22.734V25.3955Z" fill="#906E50"/>
</svg>
