<svg width="40" height="40" viewBox="0 0 40 40" fill="none" xmlns="http://www.w3.org/2000/svg">
<path d="M39.9997 3.972C40.0021 3.42877 39.7859 2.90739 39.3997 2.52534L37.4744 0.600026C37.0941 0.215607 36.5758 -0.000459962 36.0351 7.35213e-07H36.0284C35.491 0.000329805 34.9763 0.216528 34.5997 0.600026L25.8665 9.33326H8.66663V2.00002C8.66663 0.895398 7.77117 7.35213e-07 6.66662 7.35213e-07H5.33329C2.38918 0.00329143 0.00329069 2.38918 0 5.33329V34.8338C0.166838 37.7554 2.60037 40.0301 5.52665 39.9997H37.9997C39.1043 39.9997 39.9997 39.1043 39.9997 37.9997V11.3333C39.9997 10.2287 39.1043 9.33326 37.9997 9.33326H35.4664L39.3997 5.39996C39.7824 5.02324 39.9985 4.50904 39.9997 3.972ZM23.8532 16.6666C23.7121 16.6858 23.5702 16.6362 23.4719 16.5332C23.3726 16.4346 23.3236 16.2963 23.3385 16.1572L23.5912 13.8906C23.6018 13.8432 23.6151 13.7964 23.6312 13.7506L26.2572 16.3766C26.2139 16.3859 26.1745 16.4073 26.1292 16.4126L23.8532 16.6666ZM27.3458 15.5779L24.4285 12.6599L31.6951 5.39332L34.6111 8.30861L27.3458 15.5779ZM32.6351 4.44994L33.6238 3.46194L36.5384 6.37723L35.5504 7.36589L32.6351 4.44994ZM1.33332 5.33329C1.33556 3.12511 3.12511 1.3355 5.33329 1.33332H6.66662C7.03478 1.33332 7.33331 1.63179 7.33331 1.99995V28.6664C7.33331 29.0346 7.03484 29.333 6.66662 29.333H5.33329C3.80174 29.3326 2.34422 29.9918 1.33332 31.1423V5.33329ZM37.9997 10.6666C38.3679 10.6666 38.6664 10.9651 38.6664 11.3333V37.9997C38.6664 38.3679 38.368 38.6664 37.9997 38.6664H5.52665C3.32584 38.7034 1.48213 37.0092 1.33332 34.8131V34.6664C1.33556 32.4582 3.12511 30.6687 5.33329 30.6664H6.66662C7.77117 30.6664 8.66657 29.771 8.66657 28.6665V10.6666H24.5331L23.0191 12.1806C22.5965 12.597 22.3306 13.1467 22.2665 13.7365L22.0138 16.0078C21.993 16.2294 22.0141 16.4527 22.0758 16.6665H10.6666C10.2984 16.6665 9.99989 16.965 9.99989 17.3332C9.99989 17.7014 10.2984 17.9998 10.6666 17.9998H12.6666V35.9997C12.6666 36.3679 12.9651 36.6664 13.3333 36.6664C13.7015 36.6664 14 36.368 14 35.9997V26.6665H21.3332V31.9998H16.6666C16.2984 31.9998 15.9999 32.2982 15.9999 32.6664C15.9999 33.0345 16.2984 33.3331 16.6666 33.3331H29.9998C30.7362 33.3331 31.3331 32.7361 31.3331 31.9998V21.9999C31.3331 21.6317 31.0347 21.3332 30.6665 21.3332C30.2983 21.3332 29.9998 21.6316 29.9998 21.9999V25.3331H13.9999V17.9999H23.8052C23.8702 18 23.9353 17.9965 23.9999 17.9892L26.2778 17.7299C26.856 17.6643 27.3957 17.4074 27.8112 16.9999L34.1365 10.6667L37.9997 10.6666ZM29.9998 26.6665V31.9998H22.6665V26.6665H29.9998ZM38.4597 4.45461L37.4811 5.43392L34.5664 2.51929L35.5457 1.53998C35.6739 1.40848 35.8495 1.33398 36.0331 1.33332C36.22 1.33378 36.3989 1.40921 36.5297 1.54268L38.4577 3.46668C38.5918 3.5987 38.667 3.77916 38.6664 3.96733C38.6658 4.15095 38.5913 4.3266 38.4597 4.45461Z" fill="#906E50"/>
</svg>
