<svg width="44" height="40" viewBox="0 0 44 40" fill="none" xmlns="http://www.w3.org/2000/svg">
<path d="M41.4924 27.0011V24.6229C41.4924 22.4052 39.6976 20.6011 37.4916 20.6011H22.1693C21.8127 20.6011 21.5235 20.8917 21.5235 21.2503C21.5235 21.6089 21.8127 21.8995 22.1693 21.8995H37.4916C38.9855 21.8995 40.2008 23.1212 40.2008 24.623V27.0012C38.7702 27.3016 37.6923 28.579 37.6923 30.1049V32.5159H17.0584V30.1049C17.0584 28.5789 15.9805 27.3016 14.55 27.0012V24.623C14.55 23.1212 15.7654 21.8995 17.2593 21.8995H19.5862C19.9429 21.8995 20.232 21.6089 20.232 21.2503C20.232 20.8917 19.9429 20.6011 19.5862 20.6011H17.2593C15.0532 20.6011 13.2585 22.4053 13.2585 24.6229V27.0011C11.828 27.3015 10.75 28.5789 10.75 30.1048V39.3508C10.75 39.7094 11.0391 40 11.3958 40H31.3143C31.671 40 31.9601 39.7094 31.9601 39.3508C31.9601 38.9922 31.671 38.7016 31.3143 38.7016H17.0584V33.8142H37.6923V38.7016H33.8974C33.5407 38.7016 33.2516 38.9922 33.2516 39.3508C33.2516 39.7094 33.5407 40 33.8974 40H43.355C43.7118 40 44.0008 39.7094 44.0008 39.3508V30.1049C44.0008 28.5789 42.9229 27.3016 41.4924 27.0011ZM12.0415 30.1049C12.0415 29.0725 12.8771 28.2325 13.9042 28.2325C14.9313 28.2325 15.7669 29.0725 15.7669 30.1049V38.7017H12.0415V30.1049ZM42.7092 38.7017H38.9839V30.1049C38.9839 29.0725 39.8194 28.2325 40.8466 28.2325C41.8736 28.2325 42.7091 29.0725 42.7091 30.1049V38.7017H42.7092Z" fill="#906E50"/>
<path d="M16.4564 15.9683C16.4879 16.2956 16.7716 16.5541 17.099 16.5541H37.6517C38.0029 16.5541 38.2975 16.2581 38.2975 15.9049V0.649215C38.2975 0.296056 38.003 0 37.6517 0H33.8974C33.5406 0 33.2515 0.290613 33.2515 0.649215C33.2515 1.00782 33.5406 1.29843 33.8974 1.29843H36.0926L34.897 2.50027H19.8535L18.658 1.29843H31.3141C31.6708 1.29843 31.9599 1.00782 31.9599 0.649215C31.9599 0.290613 31.6708 0 31.3141 0H17.0989C16.7474 0 16.4531 0.296488 16.4531 0.649215V15.9049C16.4532 15.9258 16.4543 15.9475 16.4564 15.9683ZM18.658 15.2558L19.8535 14.0539H34.897L36.0925 15.2558H18.658ZM34.5188 12.7554H28.6514L27.5748 11.5534L31.0661 7.65503C31.2736 7.42307 31.6428 7.42644 31.8496 7.65727L34.5188 10.609V12.7554ZM26.9134 12.7554H20.2319V12.2819L23.0581 9.12615C23.218 8.94767 23.5033 8.94758 23.6631 9.12615L26.9134 12.7554ZM37.0058 2.21657V14.3376L35.8103 13.1357V3.41842L37.0058 2.21657ZM34.5188 8.67883L32.8074 6.7863C32.0963 5.9923 30.8173 5.9923 30.1062 6.7863L26.7058 10.5831L24.623 8.25742C24.3014 7.8983 23.8413 7.69235 23.3607 7.69235C22.8831 7.69235 22.4177 7.90072 22.0982 8.25742L20.2319 10.3414V3.79862H34.5188V8.67883ZM18.9403 3.41842V13.1358L17.7447 14.3377V2.21657L18.9403 3.41842Z" fill="#906E50"/>
<path d="M7.27818 36.3624H6.64457V13.8944H8.30331V21.2398C8.30331 21.5984 8.59249 21.889 8.94913 21.889C9.30576 21.889 9.59494 21.5984 9.59494 21.2398V13.8944H11.3521C11.7602 13.8944 12.0727 13.5008 11.9816 13.1005L9.71705 3.1427C9.64994 2.8475 9.38869 2.63818 9.08748 2.63818H2.91003C2.60883 2.63818 2.34758 2.8475 2.28046 3.1427L0.0158683 13.1005C-0.0751383 13.5008 0.237326 13.8944 0.645438 13.8944H5.35303V36.3623H4.71942C3.13364 36.3623 1.84356 37.6592 1.84356 39.2533V39.3508C1.84356 39.7094 2.13274 40 2.48938 40H9.50823C9.86486 40 10.154 39.7094 10.154 39.3508V39.2533C10.154 37.6593 8.86388 36.3624 7.27818 36.3624ZM3.42488 3.93661H8.57273L10.542 12.5961H1.45547L3.42488 3.93661ZM3.23307 38.7017C3.45676 38.0946 4.03855 37.6608 4.71934 37.6608H7.27809C7.95888 37.6608 8.54067 38.0945 8.76436 38.7017H3.23307Z" fill="#906E50"/>
<path d="M26.7045 8.17385C27.7101 8.17385 28.5282 7.35143 28.5282 6.34059C28.5282 5.32966 27.7101 4.50732 26.7045 4.50732C25.6989 4.50732 24.8809 5.32975 24.8809 6.34059C24.8809 7.35143 25.6989 8.17385 26.7045 8.17385ZM26.7045 5.80567C26.9979 5.80567 27.2366 6.04566 27.2366 6.34059C27.2366 6.63552 26.9979 6.87551 26.7045 6.87551C26.4111 6.87551 26.1724 6.63552 26.1724 6.34059C26.1724 6.04557 26.4111 5.80567 26.7045 5.80567Z" fill="#906E50"/>
</svg>
