<svg width="20" height="20" viewBox="0 0 20 20" fill="none" xmlns="http://www.w3.org/2000/svg">
<path d="M18.3447 6.73249L12.9012 6.10886L10.585 0.74765C10.4695 0.373647 10.0057 0.124023 9.65833 0.124023C9.31094 0.124023 8.8472 0.373647 8.73167 0.74765L6.41549 6.10886L0.971967 6.73249C0.50904 6.73249 0.277173 7.1065 0.0453065 7.4805C-0.0702214 7.8545 0.0453069 8.35375 0.277174 8.60251L4.33127 12.593L3.17275 18.4534C3.05722 18.8275 3.28827 19.3267 3.63567 19.5755C3.86754 19.8242 4.09941 19.9495 4.21494 19.9495C4.4468 19.9495 4.56233 19.9495 4.67786 19.8251L9.54229 16.8323L14.2911 19.8251C14.6385 20.0747 15.1022 20.0747 15.4496 19.7007C15.797 19.4511 15.9126 18.9527 15.9126 18.5787L14.754 12.7183L18.8081 8.72776C19.1555 8.47814 19.271 7.97975 19.04 7.60575C19.04 7.1065 18.6926 6.85688 18.3452 6.7325L18.3447 6.73249Z" fill="#FFA24D"/>
</svg>
