<svg width="13" height="11" viewBox="0 0 13 11" fill="none" xmlns="http://www.w3.org/2000/svg">
<path d="M0.000134468 9.2547C0.0728927 8.9942 0.257789 8.85507 0.495567 8.75059C1.02125 8.51958 1.49343 8.20602 1.86485 7.75711C2.28978 7.24367 2.5063 6.63811 2.60682 5.98693C2.64795 5.72012 2.66457 5.44942 2.69408 5.16396C2.62757 5.16396 2.58456 5.16396 2.54143 5.16396C1.98174 5.16396 1.42205 5.16459 0.86236 5.16371C0.438935 5.16308 0.195282 4.91808 0.195032 4.49148C0.194407 3.22086 0.194407 1.95038 0.195032 0.679765C0.195282 0.248371 0.440686 0.0019865 0.871612 0.00173378C2.12788 0.00097847 3.38428 0.00097847 4.64055 0.00173378C5.0726 0.0019865 5.31688 0.24711 5.31676 0.679386C5.31651 1.79977 5.32276 2.92016 5.31213 4.04042C5.30338 4.97038 5.242 5.89656 5.0381 6.80825C4.79195 7.90885 4.23226 8.82268 3.42066 9.58704C2.81446 10.1581 2.11913 10.5912 1.36042 10.9242C1.02038 11.0734 0.698841 10.9623 0.537322 10.6289C0.352175 10.2469 0.17878 9.85913 0.000259399 9.47386C0.000133991 9.40089 0.000134468 9.3278 0.000134468 9.2547Z" fill="white"/>
<path d="M9.72028 5.16344C9.66064 5.16344 9.61701 5.16344 9.57326 5.16344C9.01344 5.16344 8.4535 5.16495 7.89369 5.16294C7.50189 5.16155 7.25286 4.91063 7.25236 4.51364C7.25074 3.22652 7.25061 1.93927 7.25249 0.652147C7.25299 0.257554 7.50252 0.00297737 7.89569 0.00209522C9.17246 -0.000802994 10.4494 -0.000551224 11.7261 0.00196934C12.1263 0.0027256 12.3731 0.256671 12.3731 0.659835C12.3731 1.82106 12.3802 2.98253 12.367 4.14362C12.3572 4.99645 12.2847 5.84437 12.1141 6.68321C11.884 7.81406 11.3416 8.76129 10.5162 9.55413C9.8933 10.1525 9.17809 10.6039 8.38924 10.9411C8.05983 11.0818 7.74592 10.9658 7.58652 10.6426C7.42351 10.3124 7.26574 9.97935 7.11372 9.64386C6.9577 9.2998 7.08359 8.96596 7.43163 8.80666C7.84418 8.61787 8.23623 8.39833 8.58039 8.09788C9.12571 7.62187 9.43087 7.00773 9.59226 6.31168C9.67852 5.93965 9.72365 5.56232 9.72028 5.16344Z" fill="white"/>
</svg>
