<svg width="20" height="20" viewBox="0 0 20 20" fill="none" xmlns="http://www.w3.org/2000/svg">
<path d="M18.3447 6.73225L12.9012 6.10862L10.585 0.747406C10.4695 0.373403 10.0057 0.123779 9.65833 0.123779C9.31094 0.123779 8.8472 0.373403 8.73167 0.747406L6.41549 6.10862L0.971967 6.73225C0.50904 6.73225 0.277173 7.10625 0.0453065 7.48026C-0.0702214 7.85426 0.0453069 8.35351 0.277174 8.60226L4.33127 12.5928L3.17275 18.4532C3.05722 18.8272 3.28827 19.3265 3.63567 19.5752C3.86754 19.824 4.09941 19.9492 4.21494 19.9492C4.4468 19.9492 4.56233 19.9492 4.67786 19.8248L9.54229 16.8321L14.2911 19.8248C14.6385 20.0745 15.1022 20.0745 15.4496 19.7005C15.797 19.4508 15.9126 18.9525 15.9126 18.5785L14.754 12.718L18.8081 8.72752C19.1555 8.47789 19.271 7.97951 19.04 7.6055C19.04 7.10625 18.6926 6.85663 18.3452 6.73226L18.3447 6.73225Z" fill="#FFA24D"/>
</svg>
