<svg width="49" height="40" viewBox="0 0 49 40" fill="none" xmlns="http://www.w3.org/2000/svg">
<path d="M19.4866 6.03319C19.6073 6.27451 19.909 6.45551 20.1503 6.45551C20.271 6.45551 20.3916 6.39518 20.5726 6.33485C20.9346 6.09352 21.0553 5.61086 20.8743 5.24887L19.004 1.99095C18.7627 1.62896 18.28 1.5083 17.918 1.6893C17.556 1.93062 17.4354 2.41328 17.6164 2.77527L19.4866 6.03319Z" fill="white"/>
<path d="M24.1935 5.3092C24.6158 5.3092 24.9778 4.94721 24.9778 4.52489V0.784314C24.9778 0.361992 24.6158 0 24.1935 0C23.7712 0 23.4092 0.361992 23.4092 0.784314V4.52489C23.4092 5.00754 23.7712 5.3092 24.1935 5.3092Z" fill="white"/>
<path d="M27.8125 6.33484C27.9332 6.39517 28.0539 6.4555 28.2349 6.4555C28.5365 6.4555 28.7779 6.33484 28.8985 6.03318L30.7688 2.77526C31.0101 2.41327 30.8291 1.93062 30.4671 1.68929C30.1052 1.44796 29.6225 1.62896 29.3812 1.99095L27.5109 5.24887C27.3299 5.61086 27.4506 6.09351 27.8125 6.33484Z" fill="white"/>
<path d="M5.36953 28.8386C5.36953 28.4163 5.00754 28.0543 4.58522 28.0543C4.1629 28.0543 3.80091 28.4163 3.80091 28.8386V31.4932H1.62896V29.804C1.62896 25.5204 5.12821 22.0211 9.41177 22.0211C11.1614 22.0211 12.7903 22.5641 14.0573 23.5898C14.359 23.1675 14.721 22.7451 15.083 22.3831C14.359 21.8402 13.5143 21.3575 12.6094 21.0558C14.178 20.0302 15.264 18.2202 15.264 16.169C15.264 12.911 12.6094 10.3168 9.41177 10.3168C6.15385 10.3168 3.55958 12.9714 3.55958 16.169C3.55958 18.2202 4.58522 20.0302 6.21418 21.0558C2.59427 22.3831 0 25.7617 0 29.804V32.2776C0 32.6999 0.361991 33.0619 0.784314 33.0619H11.3424V31.4932H5.36953V28.8386ZM5.06787 16.1086C5.06787 13.7557 6.99849 11.8251 9.35143 11.8251C11.7044 11.8251 13.635 13.7557 13.635 16.1086C13.635 18.4616 11.7044 20.3922 9.35143 20.3922C6.99849 20.4525 5.06787 18.5219 5.06787 16.1086Z" fill="white"/>
<path d="M42.2324 21.0558C43.801 20.0302 44.887 18.2202 44.887 16.169C44.887 12.911 42.2324 10.3168 39.0348 10.3168C35.7769 10.3168 33.1826 12.9714 33.1826 16.169C33.1826 18.2202 34.2083 20.0302 35.8372 21.0558C34.9322 21.3575 34.1479 21.8402 33.3636 22.3831C33.7256 22.7451 34.0876 23.1675 34.3893 23.5898C35.7166 22.6245 37.2852 22.0211 39.0348 22.0211C43.3184 22.0211 46.8176 25.5204 46.8176 29.804V31.4932H44.6457V28.8386C44.6457 28.4163 44.2837 28.0543 43.8614 28.0543C43.439 28.0543 43.077 28.4163 43.077 28.8386V31.4932H37.1042V33.0619H47.6623C48.0846 33.0619 48.4466 32.6999 48.4466 32.2776V29.804C48.3862 25.7617 45.792 22.3831 42.2324 21.0558ZM34.7512 16.1086C34.7512 13.7557 36.6819 11.8251 39.0348 11.8251C41.3877 11.8251 43.3184 13.7557 43.3184 16.1086C43.3184 18.4616 41.3877 20.3922 39.0348 20.3922C36.6819 20.4525 34.7512 18.5219 34.7512 16.1086Z" fill="white"/>
<path d="M27.753 20.6938C29.8043 19.4872 31.1919 17.2549 31.1919 14.6606C31.1919 10.7994 28.0546 7.66214 24.1934 7.66214C20.3322 7.66214 17.1949 10.7994 17.1949 14.6606C17.1949 17.1946 18.5825 19.4872 20.6338 20.6938C16.1693 22.2021 12.9717 26.365 12.9717 31.3726V34.3891C12.9717 34.8115 13.3337 35.1735 13.756 35.1735H18.2205L16.4709 33.6048H14.5403V31.3726C14.5403 26.0634 18.8842 21.7195 24.1934 21.7195C29.5026 21.7195 33.8465 26.0634 33.8465 31.3726V33.6048H31.9159L30.1663 35.1735H34.6308C35.0531 35.1735 35.4151 34.8115 35.4151 34.3891V31.3726C35.4151 26.4253 32.2175 22.2021 27.753 20.6938ZM18.7635 14.721C18.7635 11.7647 21.1768 9.2911 24.1331 9.2911C27.0893 9.2911 29.5026 11.7044 29.5026 14.721C29.5026 17.7376 27.0893 20.1508 24.1331 20.1508C21.1768 20.1508 18.7635 17.6772 18.7635 14.721Z" fill="white"/>
<path d="M28.2355 34.8115L31.3728 31.9759C31.6141 31.7949 31.6745 31.3725 31.6141 31.1312C31.4935 30.8296 31.2521 30.5882 30.8901 30.5882L26.6669 30.1056L24.9173 26.2443C24.7966 25.9427 24.495 25.7617 24.133 25.7617C23.8313 25.7617 23.5297 25.9427 23.3487 26.2443L21.599 30.1056L17.3758 30.5882C17.0742 30.6486 16.7725 30.8899 16.6518 31.1312C16.5312 31.4329 16.6518 31.7949 16.8932 31.9759L20.0304 34.8115L19.1858 38.9744C19.1254 39.276 19.2461 39.638 19.4874 39.819C19.7288 40 20.0907 40 20.3924 39.8793L24.0726 37.7677L27.7529 39.8793C27.8736 39.9397 27.9942 40 28.1752 40C28.3562 40 28.5372 39.9397 28.6579 39.819C28.8992 39.638 29.0199 39.276 28.9595 38.9744L28.2355 34.8115ZM26.6066 34.6908L27.2099 37.6471L24.6156 36.1388C24.3743 36.0181 24.0726 36.0181 23.8313 36.1388L21.1767 37.5867L21.78 34.6305C21.8404 34.3288 21.7197 34.0875 21.5387 33.9065L19.3064 31.8552L22.323 31.4932C22.6247 31.4329 22.866 31.3122 22.9867 31.0106L24.2536 28.2353L25.5206 31.0106C25.6413 31.2519 25.8826 31.4329 26.1843 31.4932L29.2008 31.8552L26.9686 33.9065C26.6066 34.0875 26.5462 34.3891 26.6066 34.6908Z" fill="white"/>
</svg>
