<svg width="31" height="40" viewBox="0 0 31 40" fill="none" xmlns="http://www.w3.org/2000/svg">
<path fill-rule="evenodd" clip-rule="evenodd" d="M20.6101 33.9001C18.1244 33.9001 16.099 31.8356 16.099 29.3019C16.099 25.0555 21.0474 23.0848 23.8783 25.9705C26.7323 28.9265 24.7069 33.9001 20.6101 33.9001ZM24.9831 17.337H5.1205C3.92368 17.337 2.98003 16.3517 2.98003 15.0848C2.98003 13.9587 3.83161 13.0203 4.89034 12.903C4.89034 12.8561 4.89034 12.8326 4.89034 12.8092C4.89034 9.78279 6.24827 6.96754 8.36572 5.02033C8.43477 4.94995 8.50381 4.87957 8.57286 4.83265C9.6546 3.91769 10.9205 3.21388 12.3244 2.79159L12.2554 1.78279C12.1633 0.750535 12.9689 -0.000198364 13.9355 -0.000198364H16.1681C17.1577 -0.000198364 17.9633 0.820916 17.9173 1.75933L17.8482 2.81505C19.2292 3.21388 20.495 3.91769 21.5538 4.83265C21.6688 4.87957 21.7609 4.94995 21.8299 5.06725C23.9704 6.991 25.2823 9.75933 25.2823 12.8092V12.903C26.3871 13.0438 27.1926 13.9587 27.1926 15.0848C27.1926 16.3517 26.249 17.337 24.9831 17.337ZM6.13319 12.8796H13.0609L12.4165 4.05845C12.0943 4.17575 11.7951 4.29306 11.4959 4.43382V9.45435C11.4959 9.78279 11.2197 10.0643 10.8744 10.0643C10.5522 10.0643 10.276 9.78279 10.276 9.45435V5.11417C9.99984 5.27839 9.74667 5.48954 9.49349 5.67722V8.28133C9.49349 8.60977 9.2173 8.8913 8.89508 8.8913C8.54985 8.8913 8.27366 8.60977 8.27366 8.28133V6.92062C6.91573 8.53939 6.13319 10.6508 6.13319 12.8796ZM5.1205 14.1464C3.90066 14.1464 3.94669 16.0936 5.1205 16.0936H24.9831C26.272 16.0936 26.341 14.1464 24.9831 14.1464H24.6839H16.3982H13.7054H5.51176H5.1205ZM17.0427 12.8796H24.0625C24.0625 10.6508 23.2569 8.56285 21.922 6.94408V8.28133C21.922 8.60977 21.6458 8.8913 21.3006 8.8913C20.9553 8.8913 20.6792 8.60977 20.6792 8.28133V5.70068C20.426 5.48954 20.1498 5.27839 19.8506 5.09071V9.45435C19.8506 9.78279 19.5744 10.0643 19.2292 10.0643C18.8839 10.0643 18.6077 9.78279 18.6077 9.45435V4.43382C18.3315 4.29306 18.0323 4.17575 17.7331 4.08191L17.0427 12.8796ZM16.5593 3.42502C16.5363 3.30772 16.5593 3.16696 16.6054 3.04965L16.6974 1.68895C16.6974 1.40743 16.4212 1.2432 16.1681 1.2432H13.9355C13.7054 1.2432 13.4752 1.36051 13.4752 1.66549L14.2808 12.8796H15.8228L16.5593 3.42502ZM4.66018 39.9998C4.31494 39.9998 4.06177 39.6948 4.06177 39.3664V37.3488H2.98003V39.3664C2.98003 39.8121 2.54273 40.1171 2.12845 39.9529C-0.380273 38.8972 -0.748526 35.4016 1.46099 33.7828V24.7036C-0.702494 23.1552 -0.449321 19.7065 2.12845 18.557C2.51971 18.3693 2.98003 18.6977 2.98003 19.1435V21.2549H4.06177V19.1435C4.06177 18.6977 4.49907 18.3928 4.91335 18.557C7.37604 19.5892 7.81334 23.0848 5.67287 24.6332V33.8766C7.85937 35.4719 7.28398 38.991 4.91335 39.9529C4.82129 39.9763 4.75224 39.9998 4.66018 39.9998ZM2.68082 36.0819H4.36098C5.48875 36.0819 5.28161 37.3253 5.28161 38.1699C6.15621 37.1376 5.94906 35.425 4.75224 34.7681C4.56812 34.6508 4.43002 34.4397 4.43002 34.2051V24.2813C4.43002 24.0702 4.56812 23.859 4.75224 23.7417C5.94906 23.0848 6.15621 21.3957 5.28161 20.34V21.4895C5.28161 22.0526 4.86732 22.4983 4.36098 22.4983H2.68082C1.55305 22.4983 1.76019 21.208 1.76019 20.34C0.816547 21.4426 1.1848 23.1787 2.3586 23.8121C2.56575 23.9294 2.68082 24.1406 2.68082 24.3752V34.1347C2.68082 34.3693 2.56575 34.5804 2.3586 34.6743C1.1848 35.3312 0.816547 37.0438 1.76019 38.1699C1.76019 37.2315 1.55305 36.0819 2.68082 36.0819ZM22.2903 39.296H18.999C18.3085 39.296 17.7792 38.7329 17.7792 38.0526V35.9646C17.2728 35.7535 16.7895 35.4719 16.3522 35.12L14.603 36.1758C14.0046 36.4807 13.2911 36.3165 12.9459 35.7065L11.2657 32.8209C10.9205 32.2344 11.1736 31.4368 11.726 31.0848L13.4752 30.1464C13.3832 29.513 13.3832 28.9734 13.4752 28.3869L11.657 27.3781C11.1276 26.9089 10.9205 26.3224 11.2657 25.689L12.9459 22.8268C13.2911 22.1933 14.0276 22.0291 14.649 22.3576L16.3522 23.3898C16.7895 23.0379 17.2728 22.7564 17.7792 22.5453V20.4573C17.7792 19.8004 18.3546 19.2139 18.999 19.2139H22.2903C22.9347 19.2139 23.5331 19.8004 23.5331 20.4573V22.5453C24.0395 22.7564 24.5228 23.0379 24.9601 23.3664L26.6863 22.3341C27.2847 22.0291 27.9982 22.1933 28.3434 22.8033L30.0466 25.7124C30.3688 26.3458 30.1156 27.0731 29.5632 27.425L27.814 28.3869C27.9061 28.9734 27.9291 29.513 27.814 30.123L29.6323 31.1318C30.1847 31.5541 30.3458 32.2813 30.0236 32.8209L28.3434 35.6831C27.9982 36.3165 27.2617 36.4807 26.6633 36.1523L24.9601 35.12C24.5228 35.4719 24.0395 35.7535 23.5331 35.9646V38.0526C23.5331 38.7329 22.9807 39.296 22.2903 39.296ZM18.999 38.0526H22.2903V35.5423C22.2903 34.7447 23.1649 35.0966 24.4998 33.9001C24.7069 33.7124 25.0061 33.6889 25.2133 33.8297L27.2847 35.0731L28.9648 32.1875L26.8244 31.0145C26.249 30.686 26.6633 30.076 26.6633 29.3019C26.6633 27.3546 25.6275 28.1758 28.9648 26.3224L27.2847 23.4368L25.2133 24.6802C24.5458 25.079 24.3847 24.1171 22.7276 23.5541C22.4744 23.4602 22.2903 23.2256 22.2903 22.9675V20.4807L19.022 20.4573L18.999 22.9675C18.999 23.7417 18.1244 23.4133 16.8125 24.6098C16.6054 24.774 16.3062 24.7975 16.099 24.6802L14.0276 23.4368L12.3474 26.3224C15.6847 28.1758 14.649 27.3546 14.649 29.3019C14.649 30.076 15.0633 30.686 14.4649 31.0145L12.3474 32.1875L14.0276 35.0731L16.099 33.8297C16.7435 33.4309 16.9276 34.3928 18.5847 34.9558C18.8379 35.0262 18.999 35.2608 18.999 35.5423V38.0526ZM20.6101 25.8532C18.7919 25.8532 17.3189 27.4016 17.3189 29.3019C17.3189 31.1318 18.7919 32.6567 20.6101 32.6567C22.4744 32.6567 23.9934 31.1318 23.9934 29.3019C23.9934 27.3546 22.4974 25.8532 20.6101 25.8532Z" fill="white"/>
</svg>
