<svg width="36" height="40" viewBox="0 0 36 40" fill="none" xmlns="http://www.w3.org/2000/svg">
<path d="M35.75 39.75V38.8235C35.75 35.2862 34.5428 32.0455 32.1525 29.1845L32.1082 29.1315L32.1082 29.1315C29.9817 26.5864 27.0697 24.8529 23.827 24.1419L23.2815 24.0223L23.734 23.6951C25.4196 22.4763 26.7231 20.7508 27.4258 18.741L27.4844 18.5735H27.6618H30.3129C31.6578 18.5735 32.7567 17.4666 32.7567 16.1009V15.2941C32.7567 6.9965 26.0778 0.25 17.8744 0.25C9.67105 0.25 2.99213 6.9965 2.99213 15.2941V16.1009C2.99213 17.4666 4.09119 18.5735 5.43599 18.5735H7.99095H8.16838L8.22694 18.741C8.94116 20.7838 10.2763 22.5325 12.0022 23.7544L12.4536 24.074L11.9155 24.2017C8.77638 24.9465 5.96183 26.6539 3.89184 29.1313L35.75 39.75ZM35.75 39.75H0.25V38.8235C0.25 35.2862 1.45717 32.0454 3.84704 29.185L3.84715 29.1849L3.89174 29.1314L35.75 39.75ZM10.5062 18.5735H10.1123L10.2799 18.9299C11.6201 21.7796 14.4975 23.7576 17.8264 23.7576C22.4334 23.7576 26.1765 19.9707 26.1765 15.3209C26.1765 10.6712 22.4333 6.8842 17.8264 6.8842C13.2195 6.8842 9.47635 10.6712 9.47635 15.3209C9.47635 15.723 9.50498 16.1183 9.55899 16.5052L9.58907 16.7206H9.80659H16.0725V18.5735H10.5062ZM27.9437 16.4438L27.9139 16.7206H28.1923H30.313C30.6552 16.7206 30.9288 16.4404 30.9288 16.1009V15.2941C30.9288 14.8896 30.9097 14.4899 30.8743 14.0953L30.8539 13.8676H30.6253H28.1862H27.9064L27.9378 14.1457C27.9814 14.5318 28.0046 14.9238 28.0046 15.3209C28.0046 15.7001 27.9835 16.0746 27.9437 16.4438ZM30.1947 12.0147H30.5246L30.4354 11.6971C28.8827 6.16798 23.8414 2.10294 17.8745 2.10294C11.9076 2.10294 6.86635 6.16798 5.31364 11.6971L5.22446 12.0147H5.55433H8.0098H8.18622L8.24535 11.8485C9.65824 7.87642 13.4213 5.03125 17.8264 5.03125C22.2316 5.03125 25.9946 7.87642 27.4075 11.8485L27.4667 12.0147H27.6431H30.1947ZM5.12372 13.8676H4.8951L4.87472 14.0954C4.83941 14.4899 4.82026 14.8896 4.82026 15.2941V16.1009C4.82026 16.4403 5.09373 16.7206 5.43607 16.7206H7.46062H7.73903L7.70918 16.4438C7.66936 16.0746 7.6483 15.7001 7.6483 15.3209C7.6483 14.9238 7.67148 14.5318 7.71509 14.1457L7.7465 13.8676H7.46667H5.12372ZM2.13273 37.6241L2.10757 37.8971H2.38167H33.6183H33.8924L33.8673 37.6241C33.6249 34.9942 32.5788 32.5619 30.7579 30.3825L30.7579 30.3824L30.7136 30.3294C28.2177 27.3422 24.4808 25.6324 20.4647 25.6324H15.5354C11.5192 25.6324 7.78239 27.3422 5.28682 30.329L5.28672 30.3291L5.24213 30.3825C3.42115 32.5619 2.37513 34.9942 2.13273 37.6241Z" fill="white" stroke="#906E50" stroke-width="0.5"/>
</svg>
