<svg width="116" height="35" viewBox="0 0 116 35" fill="none" xmlns="http://www.w3.org/2000/svg">
<path d="M47.7207 19.4627L53.8594 3.82155H56.2672L62.3842 19.4627H59.2389L54.5102 6.62495H55.5947L50.8009 19.4627H47.7207ZM50.9744 16.5481V14.0117H59.1739V16.5481H50.9744Z" fill="#111111"/>
<path d="M64.0511 19.4627V8.71637H66.8927V19.4627H64.0511ZM66.8927 13.5222L65.7864 12.7657C65.9165 11.4456 66.2925 10.4073 66.9144 9.65083C67.5362 8.87953 68.4328 8.49388 69.6041 8.49388C70.1103 8.49388 70.5658 8.58287 70.9707 8.76087C71.3756 8.92403 71.7444 9.19843 72.077 9.58409L70.2982 11.6755C70.1392 11.4975 69.944 11.364 69.7126 11.275C69.4957 11.186 69.2426 11.1415 68.9534 11.1415C68.346 11.1415 67.8471 11.3418 67.4566 11.7423C67.0807 12.1279 66.8927 12.7212 66.8927 13.5222Z" fill="#111111"/>
<path d="M74.6788 19.4627V4.24428H77.5204V19.4627H74.6788ZM72.2276 11.275V8.71637H79.9715V11.275H72.2276Z" fill="#111111"/>
<path d="M81.5696 19.4627V8.71637H84.4328V19.4627H81.5696ZM83.0012 6.98093C82.5385 6.98093 82.1552 6.82519 81.8516 6.5137C81.5479 6.18738 81.396 5.78689 81.396 5.31224C81.396 4.85243 81.5479 4.45936 81.8516 4.13304C82.1552 3.80672 82.5385 3.64355 83.0012 3.64355C83.4784 3.64355 83.8616 3.80672 84.1509 4.13304C84.4545 4.45936 84.6064 4.85243 84.6064 5.31224C84.6064 5.78689 84.4545 6.18738 84.1509 6.5137C83.8616 6.82519 83.4784 6.98093 83.0012 6.98093Z" fill="#111111"/>
<path d="M86.9501 19.4627V8.71637H89.7917V19.4627H86.9501ZM93.7829 19.4627V13.1217C93.7829 12.4987 93.5877 12.0167 93.1973 11.6755C92.8213 11.3195 92.3513 11.1415 91.7873 11.1415C91.4113 11.1415 91.0715 11.2231 90.7678 11.3863C90.4641 11.5346 90.2255 11.7571 90.052 12.0537C89.8785 12.3504 89.7917 12.7064 89.7917 13.1217L88.6854 12.5655C88.6854 11.7348 88.859 11.0155 89.206 10.4073C89.5675 9.79916 90.052 9.33193 90.6594 9.00561C91.2667 8.66445 91.9536 8.49388 92.7201 8.49388C93.4431 8.49388 94.1011 8.66445 94.694 9.00561C95.2869 9.33193 95.7569 9.79916 96.1039 10.4073C96.451 11.0006 96.6245 11.72 96.6245 12.5655V19.4627H93.7829ZM100.616 19.4627V13.1217C100.616 12.4987 100.421 12.0167 100.03 11.6755C99.6541 11.3195 99.1841 11.1415 98.6202 11.1415C98.2586 11.1415 97.9188 11.2231 97.6007 11.3863C97.297 11.5346 97.0584 11.7571 96.8848 12.0537C96.7113 12.3504 96.6245 12.7064 96.6245 13.1217L94.9977 12.7212C95.0555 11.8609 95.2797 11.1193 95.6701 10.4963C96.0606 9.85849 96.5739 9.36901 97.2102 9.02786C97.8465 8.67187 98.5551 8.49388 99.336 8.49388C100.117 8.49388 100.818 8.66445 101.44 9.00561C102.062 9.33193 102.554 9.80658 102.915 10.4296C103.277 11.0525 103.457 11.7942 103.457 12.6545V19.4627H100.616Z" fill="#111111"/>
<path d="M110.142 19.6852C109.188 19.6852 108.328 19.4405 107.561 18.951C106.795 18.4615 106.195 17.794 105.761 16.9486C105.327 16.1031 105.11 15.1538 105.11 14.1007C105.11 13.0327 105.327 12.076 105.761 11.2305C106.195 10.3851 106.795 9.71758 107.561 9.2281C108.328 8.73862 109.188 8.49388 110.142 8.49388C110.894 8.49388 111.567 8.64962 112.16 8.96111C112.753 9.2726 113.223 9.71017 113.57 10.2738C113.931 10.8226 114.126 11.4456 114.155 12.1427V16.0141C114.126 16.7261 113.931 17.3565 113.57 17.9053C113.223 18.4541 112.753 18.8917 112.16 19.218C111.567 19.5295 110.894 19.6852 110.142 19.6852ZM110.663 16.9931C111.458 16.9931 112.102 16.7261 112.594 16.1921C113.085 15.6433 113.331 14.9387 113.331 14.0784C113.331 13.5148 113.215 13.0179 112.984 12.5877C112.767 12.1427 112.456 11.8016 112.051 11.5643C111.661 11.3121 111.198 11.186 110.663 11.186C110.142 11.186 109.68 11.3121 109.275 11.5643C108.884 11.8016 108.573 12.1427 108.342 12.5877C108.125 13.0179 108.017 13.5148 108.017 14.0784C108.017 14.6569 108.125 15.1686 108.342 15.6136C108.573 16.0438 108.884 16.3849 109.275 16.6371C109.68 16.8744 110.142 16.9931 110.663 16.9931ZM113.179 19.4627V16.5703L113.635 13.9449L113.179 11.364V8.71637H115.999V19.4627H113.179Z" fill="#111111"/>
<path d="M47.7207 30.5339L50.4284 24.1536H51.1806L53.8695 30.5339H52.7037L50.5977 25.3659H50.9925L48.8677 30.5339H47.7207ZM49.0558 29.3034V28.3919H52.5438V29.3034H49.0558Z" fill="#111111"/>
<path d="M55.4804 27.8268V26.9609H57.1445C57.4767 26.9609 57.7337 26.8789 57.9154 26.7148C58.1035 26.5447 58.1975 26.3108 58.1975 26.013C58.1975 25.7457 58.1066 25.5208 57.9248 25.3385C57.7431 25.1562 57.4861 25.0651 57.1539 25.0651H55.4804V24.1536H57.2009C57.6146 24.1536 57.9781 24.2357 58.2915 24.3997C58.6049 24.5577 58.8462 24.7765 59.0155 25.056C59.191 25.3294 59.2787 25.6424 59.2787 25.9948C59.2787 26.3655 59.191 26.6875 59.0155 26.9609C58.8462 27.2344 58.6049 27.447 58.2915 27.599C57.9781 27.7509 57.6146 27.8268 57.2009 27.8268H55.4804ZM54.7376 30.5339V24.1536H55.8188V30.5339H54.7376ZM58.3479 30.5339L56.0445 27.763L57.0505 27.4076L59.7112 30.5339H58.3479Z" fill="#111111"/>
<path d="M63.4199 30.625C62.9436 30.625 62.5017 30.543 62.0943 30.3789C61.6931 30.2088 61.3421 29.9748 61.0413 29.6771C60.7404 29.3733 60.5085 29.0239 60.3455 28.6289C60.1826 28.2279 60.1011 27.7995 60.1011 27.3438C60.1011 26.888 60.1826 26.4627 60.3455 26.0677C60.5085 25.6667 60.7404 25.3173 61.0413 25.0195C61.3421 24.7218 61.6931 24.4878 62.0943 24.3177C62.5017 24.1476 62.9436 24.0625 63.4199 24.0625C63.9527 24.0625 64.4134 24.1476 64.802 24.3177C65.1906 24.4878 65.5353 24.7188 65.8362 25.0104L65.1028 25.7214C64.9085 25.5148 64.6704 25.3537 64.3883 25.2383C64.1125 25.1228 63.7897 25.0651 63.4199 25.0651C63.094 25.0651 62.7963 25.1198 62.5267 25.2292C62.2572 25.3385 62.0222 25.4965 61.8216 25.7031C61.6273 25.9036 61.4769 26.1437 61.3703 26.4232C61.2638 26.7027 61.2105 27.0095 61.2105 27.3438C61.2105 27.678 61.2638 27.9848 61.3703 28.2643C61.4769 28.5438 61.6273 28.7869 61.8216 28.9935C62.0222 29.194 62.2572 29.349 62.5267 29.4583C62.7963 29.5677 63.094 29.6224 63.4199 29.6224C63.8211 29.6224 64.1595 29.5647 64.4353 29.4492C64.7174 29.3277 64.9555 29.1636 65.1499 28.957L65.8832 29.668C65.5823 29.9657 65.2282 30.1997 64.8208 30.3698C64.4134 30.5399 63.9464 30.625 63.4199 30.625Z" fill="#111111"/>
<path d="M66.848 30.5339V24.1536H67.9292V30.5339H66.848ZM71.0318 30.5339V24.1536H72.113V30.5339H71.0318ZM67.5907 27.7083V26.7513H71.2668V27.7083H67.5907Z" fill="#111111"/>
<path d="M73.5413 30.5339V24.1536H74.6225V30.5339H73.5413Z" fill="#111111"/>
<path d="M77.7025 30.5339V24.3359H78.7837V30.5339H77.7025ZM75.5589 25.1107V24.1536H80.9274V25.1107H75.5589Z" fill="#111111"/>
<path d="M81.8689 30.5339V24.1536H82.9501V30.5339H81.8689ZM82.6116 30.5339V29.5768H86.2971V30.5339H82.6116ZM82.6116 27.7357V26.8151H85.9775V27.7357H82.6116ZM82.6116 25.1107V24.1536H86.2501V25.1107H82.6116Z" fill="#111111"/>
<path d="M90.2757 30.625C89.7994 30.625 89.3575 30.543 88.9501 30.3789C88.5489 30.2088 88.1979 29.9748 87.8971 29.6771C87.5962 29.3733 87.3643 29.0239 87.2013 28.6289C87.0384 28.2279 86.9569 27.7995 86.9569 27.3438C86.9569 26.888 87.0384 26.4627 87.2013 26.0677C87.3643 25.6667 87.5962 25.3173 87.8971 25.0195C88.1979 24.7218 88.5489 24.4878 88.9501 24.3177C89.3575 24.1476 89.7994 24.0625 90.2757 24.0625C90.8085 24.0625 91.2692 24.1476 91.6578 24.3177C92.0464 24.4878 92.3911 24.7188 92.692 25.0104L91.9586 25.7214C91.7643 25.5148 91.5262 25.3537 91.2441 25.2383C90.9683 25.1228 90.6455 25.0651 90.2757 25.0651C89.9498 25.0651 89.6521 25.1198 89.3825 25.2292C89.113 25.3385 88.878 25.4965 88.6774 25.7031C88.4831 25.9036 88.3327 26.1437 88.2261 26.4232C88.1196 26.7027 88.0663 27.0095 88.0663 27.3438C88.0663 27.678 88.1196 27.9848 88.2261 28.2643C88.3327 28.5438 88.4831 28.7869 88.6774 28.9935C88.878 29.194 89.113 29.349 89.3825 29.4583C89.6521 29.5677 89.9498 29.6224 90.2757 29.6224C90.6769 29.6224 91.0153 29.5647 91.2911 29.4492C91.5732 29.3277 91.8113 29.1636 92.0057 28.957L92.739 29.668C92.4381 29.9657 92.084 30.1997 91.6766 30.3698C91.2692 30.5399 90.8022 30.625 90.2757 30.625Z" fill="#111111"/>
<path d="M95.2208 30.5339V24.3359H96.302V30.5339H95.2208ZM93.0772 25.1107V24.1536H98.4456V25.1107H93.0772Z" fill="#111111"/>
<path d="M101.843 30.625C101.348 30.625 100.903 30.5156 100.508 30.2969C100.113 30.0781 99.7996 29.7804 99.5677 29.4036C99.3421 29.0208 99.2293 28.5894 99.2293 28.1094V24.1536H100.31V28.1003C100.31 28.4102 100.376 28.6806 100.508 28.9115C100.646 29.1363 100.831 29.3125 101.063 29.4401C101.295 29.5616 101.555 29.6224 101.843 29.6224C102.138 29.6224 102.398 29.5616 102.623 29.4401C102.849 29.3125 103.028 29.1363 103.159 28.9115C103.291 28.6806 103.357 28.4132 103.357 28.1094V24.1536H104.438V28.1185C104.438 28.5985 104.325 29.0269 104.099 29.4036C103.874 29.7804 103.567 30.0781 103.178 30.2969C102.789 30.5156 102.344 30.625 101.843 30.625Z" fill="#111111"/>
<path d="M106.539 27.8268V26.9609H108.203C108.535 26.9609 108.792 26.8789 108.974 26.7148C109.162 26.5447 109.256 26.3108 109.256 26.013C109.256 25.7457 109.165 25.5208 108.983 25.3385C108.801 25.1562 108.544 25.0651 108.212 25.0651H106.539V24.1536H108.259C108.673 24.1536 109.036 24.2357 109.35 24.3997C109.663 24.5577 109.904 24.7765 110.074 25.056C110.249 25.3294 110.337 25.6424 110.337 25.9948C110.337 26.3655 110.249 26.6875 110.074 26.9609C109.904 27.2344 109.663 27.447 109.35 27.599C109.036 27.7509 108.673 27.8268 108.259 27.8268H106.539ZM105.796 30.5339V24.1536H106.877V30.5339H105.796ZM109.406 30.5339L107.103 27.763L108.109 27.4076L110.769 30.5339H109.406Z" fill="#111111"/>
<path d="M111.571 30.5339V24.1536H112.652V30.5339H111.571ZM112.314 30.5339V29.5768H115.999V30.5339H112.314ZM112.314 27.7357V26.8151H115.68V27.7357H112.314ZM112.314 25.1107V24.1536H115.952V25.1107H112.314Z" fill="#111111"/>
<path d="M3.36323 35H0L13.6458 23.0963L21.7222 29.6407L28.3902 24.0938L41.8481 35H38.5969L28.4512 26.8977L23.4978 31.0743L28.0854 35H24.2904L13.708 26.0877L3.36323 35Z" fill="#111111"/>
<path d="M28.2069 30.0314H27.2563V30.8426H28.2069V30.0314Z" fill="#111111"/>
<path d="M29.6439 30.0314H28.6958V30.8426H29.6439V30.0314Z" fill="#111111"/>
<path d="M28.2069 31.293H27.2563V32.103H28.2069V31.293Z" fill="#111111"/>
<path d="M29.6439 31.293H28.6958V32.103H29.6439V31.293Z" fill="#111111"/>
<path d="M13.3046 29.235H11.6086V30.6851H13.3046V29.235Z" fill="#111111"/>
<path d="M15.8779 29.235H14.1807V30.6851H15.8779V29.235Z" fill="#111111"/>
<path d="M13.3046 31.4947H11.6086V32.9435H13.3046V31.4947Z" fill="#111111"/>
<path d="M15.8779 31.4947H14.1807V32.9435H15.8779V31.4947Z" fill="#111111"/>
<path d="M6.50736 28.2667L8.9262 26.1791V10.1925L6.50736 11.6235V28.2667Z" fill="#111111"/>
<path d="M10.0431 25.2588C10.0879 25.1194 11.8324 23.6705 11.8324 23.6705V8.24421L10.0431 9.1315V25.2588Z" fill="#111111"/>
<path d="M12.6581 22.9455L13.5303 22.1267L15.1117 23.4133V7.68147L20.9249 10.8605V28.2668L21.7212 28.8816L22.9817 27.7154V18.902L25.4366 17.3822V1.2156L30.8889 3.98904L25.1404 0L16.9731 4.7686V7.79175L14.7086 6.57615L12.6581 7.83738" fill="#111111"/>
<path d="M32.6364 14.441L23.8843 19.2299V26.9266L28.2081 23.096L32.4485 26.5539V15.2726L38.4459 17.7342L32.6352 14.4423L32.6364 14.441ZM26.4836 21.0045L24.5662 21.8943V19.9524L26.4836 18.9967V21.0058V21.0045ZM28.6511 19.9524L27.148 20.6851V18.6456L28.6511 17.8635V19.9537V19.9524ZM31.371 18.5175L29.1226 19.6393V17.7456L31.371 16.5769V18.5175Z" fill="#111111"/>
</svg>
