<svg width="25" height="12" viewBox="0 0 25 12" fill="none" xmlns="http://www.w3.org/2000/svg">
<path d="M7 1C7 0.447715 7.44772 0 8 0H24C24.5523 0 25 0.447715 25 1C25 1.55228 24.5523 2 24 2H8C7.44772 2 7 1.55228 7 1Z" fill="#111111"/>
<path d="M0 6C0 5.44772 0.447716 5 1 5H24C24.5523 5 25 5.44772 25 6C25 6.55228 24.5523 7 24 7H1C0.447715 7 0 6.55228 0 6Z" fill="#111111"/>
<path d="M25 11C25 10.4477 24.5523 10 24 10H18C17.4477 10 17 10.4477 17 11C17 11.5523 17.4477 12 18 12H24C24.5523 12 25 11.5523 25 11Z" fill="#111111"/>
</svg>
