<svg width="50" height="50" viewBox="0 0 50 50" fill="none" xmlns="http://www.w3.org/2000/svg">
<mask id="path-1-inside-1_946_155" fill="white">
<path d="M36.5465 26.0491L37.7737 24.8219C37.7741 24.8215 37.7745 24.8211 37.7749 24.8207C37.7753 24.8203 37.7757 24.8199 37.7761 24.8195L42.1054 20.4902C42.1056 20.4899 42.1059 20.4897 42.1062 20.4895C42.1064 20.4893 42.1066 20.4891 42.1068 20.4888L46.4369 16.1587C46.437 16.1586 46.4371 16.1585 46.4372 16.1584C46.4373 16.1583 46.4374 16.1582 46.4375 16.1581L48.8159 13.7797C49.5795 13.0162 50 12.001 50 10.9212C50 9.8414 49.5794 8.82616 48.8159 8.06279L41.9374 1.18417C41.1739 0.420694 40.1587 8.87269e-05 39.0789 8.87269e-05C37.999 8.87269e-05 36.9839 0.420597 36.2204 1.18417L23.9509 13.4535L15.6229 5.12538C14.2287 3.73124 12.4814 2.73886 10.5698 2.25556L1.82393 0.0447176C1.32393 -0.0817472 0.793848 0.0642489 0.429102 0.42919C0.0642578 0.793936 -0.0817383 1.32372 0.0447266 1.82392L2.25566 10.5698C2.73887 12.4813 3.73125 14.2287 5.12539 15.6228L13.4535 23.9509L1.18398 36.2203C0.420508 36.9839 0 37.999 0 39.0788C0 40.1587 0.420508 41.1737 1.18408 41.9372L8.06269 48.8158C8.82627 49.5795 9.84141 50 10.9213 50C12.0011 50 13.0162 49.5795 13.7797 48.8159L20.4864 42.1093C20.4875 42.1083 20.4885 42.1072 20.4896 42.1062C20.4906 42.1053 20.4916 42.1042 20.4926 42.1031L26.0491 36.5466L37.3284 47.826C38.7755 49.273 40.6763 49.9967 42.5771 49.9967C44.478 49.9967 46.3788 49.2731 47.8259 47.826C50.7201 44.9318 50.7201 40.2227 47.8259 37.3285L36.5465 26.0491ZM5.0959 9.85185L3.48691 3.487L9.85176 5.09609C11.2513 5.4498 12.5305 6.17636 13.5512 7.19706L14.7061 8.35195L8.35176 14.7062L7.19688 13.5514C6.17617 12.5306 5.44971 11.2514 5.0959 9.85185ZM10.4233 16.7777L16.7776 10.4234L21.8793 15.5251L15.525 21.8794L10.4233 16.7777ZM10.9213 47.0703C10.624 47.0703 10.3446 46.9545 10.1344 46.7443L3.25566 39.8657C3.04551 39.6556 2.92979 39.3761 2.92979 39.0788C2.92979 38.7815 3.04551 38.502 3.25566 38.2918L38.2919 3.25566C38.5021 3.0455 38.7816 2.92968 39.0789 2.92968C39.3762 2.92968 39.6556 3.0455 39.8658 3.25566L46.7444 10.1344C46.9546 10.3444 47.0704 10.6239 47.0704 10.9212C47.0704 11.2184 46.9546 11.4979 46.7444 11.7082L45.4016 13.0511L40.9331 8.58251C40.3612 8.01044 39.4337 8.01044 38.8615 8.58251C38.2895 9.15448 38.2895 10.082 38.8615 10.6541L43.33 15.1227L41.0704 17.3822L38.7675 15.0794C38.1955 14.5072 37.268 14.5074 36.6959 15.0794C36.1238 15.6515 36.1238 16.5789 36.6959 17.151L38.9988 19.4538L36.7393 21.7134L32.2708 17.2448C31.6987 16.6727 30.7713 16.6727 30.1992 17.2448C29.6271 17.8168 29.6271 18.7443 30.1992 19.3164L34.6677 23.7849L32.4081 26.0444L30.1052 23.7416C29.5332 23.1696 28.6057 23.1696 28.0336 23.7416C27.4615 24.3136 27.4615 25.2411 28.0336 25.8132L30.3364 28.116L28.116 30.3364L23.6476 25.868C23.0755 25.2959 22.148 25.2959 21.576 25.868C21.0039 26.4399 21.0039 27.3675 21.576 27.9395L26.0444 32.408L23.7849 34.6676L21.482 32.3647C20.9101 31.7928 19.9825 31.7928 19.4104 32.3647C18.8384 32.9367 18.8384 33.8643 19.4104 34.4363L21.7133 36.7392L19.4537 38.9987L14.9854 34.5304C14.4134 33.9584 13.4858 33.9584 12.9138 34.5304C12.3417 35.1023 12.3417 36.0299 12.9138 36.6019L17.3821 41.0703L15.1226 43.3299L12.8197 41.0271C12.2478 40.4551 11.3202 40.4551 10.7481 41.0271C10.1761 41.599 10.1761 42.5266 10.7481 43.0986L13.051 45.4015L11.7081 46.7443C11.4979 46.9546 11.2185 47.0703 10.9213 47.0703ZM29.1459 33.4498C29.148 33.4478 29.1499 33.4459 29.152 33.4438C29.154 33.4418 29.156 33.4398 29.1579 33.4378L33.4423 29.1534C33.4429 29.1528 33.4435 29.1523 33.4439 29.1518C33.4444 29.1512 33.445 29.1507 33.4456 29.1501L34.475 28.1207L40.6822 34.3279L34.3279 40.6822L28.1207 34.475L29.1459 33.4498ZM45.7543 45.7543C44.0024 47.5061 41.1519 47.5061 39.4 45.7543L36.3995 42.7537L42.7538 36.3994L45.7544 39.3999C47.5062 41.152 47.5062 44.0024 45.7543 45.7543Z"/>
</mask>
<path d="M36.5465 26.0491L37.7737 24.8219C37.7741 24.8215 37.7745 24.8211 37.7749 24.8207C37.7753 24.8203 37.7757 24.8199 37.7761 24.8195L42.1054 20.4902C42.1056 20.4899 42.1059 20.4897 42.1062 20.4895C42.1064 20.4893 42.1066 20.4891 42.1068 20.4888L46.4369 16.1587C46.437 16.1586 46.4371 16.1585 46.4372 16.1584C46.4373 16.1583 46.4374 16.1582 46.4375 16.1581L48.8159 13.7797C49.5795 13.0162 50 12.001 50 10.9212C50 9.8414 49.5794 8.82616 48.8159 8.06279L41.9374 1.18417C41.1739 0.420694 40.1587 8.87269e-05 39.0789 8.87269e-05C37.999 8.87269e-05 36.9839 0.420597 36.2204 1.18417L23.9509 13.4535L15.6229 5.12538C14.2287 3.73124 12.4814 2.73886 10.5698 2.25556L1.82393 0.0447176C1.32393 -0.0817472 0.793848 0.0642489 0.429102 0.42919C0.0642578 0.793936 -0.0817383 1.32372 0.0447266 1.82392L2.25566 10.5698C2.73887 12.4813 3.73125 14.2287 5.12539 15.6228L13.4535 23.9509L1.18398 36.2203C0.420508 36.9839 0 37.999 0 39.0788C0 40.1587 0.420508 41.1737 1.18408 41.9372L8.06269 48.8158C8.82627 49.5795 9.84141 50 10.9213 50C12.0011 50 13.0162 49.5795 13.7797 48.8159L20.4864 42.1093C20.4875 42.1083 20.4885 42.1072 20.4896 42.1062C20.4906 42.1053 20.4916 42.1042 20.4926 42.1031L26.0491 36.5466L37.3284 47.826C38.7755 49.273 40.6763 49.9967 42.5771 49.9967C44.478 49.9967 46.3788 49.2731 47.8259 47.826C50.7201 44.9318 50.7201 40.2227 47.8259 37.3285L36.5465 26.0491ZM5.0959 9.85185L3.48691 3.487L9.85176 5.09609C11.2513 5.4498 12.5305 6.17636 13.5512 7.19706L14.7061 8.35195L8.35176 14.7062L7.19688 13.5514C6.17617 12.5306 5.44971 11.2514 5.0959 9.85185ZM10.4233 16.7777L16.7776 10.4234L21.8793 15.5251L15.525 21.8794L10.4233 16.7777ZM10.9213 47.0703C10.624 47.0703 10.3446 46.9545 10.1344 46.7443L3.25566 39.8657C3.04551 39.6556 2.92979 39.3761 2.92979 39.0788C2.92979 38.7815 3.04551 38.502 3.25566 38.2918L38.2919 3.25566C38.5021 3.0455 38.7816 2.92968 39.0789 2.92968C39.3762 2.92968 39.6556 3.0455 39.8658 3.25566L46.7444 10.1344C46.9546 10.3444 47.0704 10.6239 47.0704 10.9212C47.0704 11.2184 46.9546 11.4979 46.7444 11.7082L45.4016 13.0511L40.9331 8.58251C40.3612 8.01044 39.4337 8.01044 38.8615 8.58251C38.2895 9.15448 38.2895 10.082 38.8615 10.6541L43.33 15.1227L41.0704 17.3822L38.7675 15.0794C38.1955 14.5072 37.268 14.5074 36.6959 15.0794C36.1238 15.6515 36.1238 16.5789 36.6959 17.151L38.9988 19.4538L36.7393 21.7134L32.2708 17.2448C31.6987 16.6727 30.7713 16.6727 30.1992 17.2448C29.6271 17.8168 29.6271 18.7443 30.1992 19.3164L34.6677 23.7849L32.4081 26.0444L30.1052 23.7416C29.5332 23.1696 28.6057 23.1696 28.0336 23.7416C27.4615 24.3136 27.4615 25.2411 28.0336 25.8132L30.3364 28.116L28.116 30.3364L23.6476 25.868C23.0755 25.2959 22.148 25.2959 21.576 25.868C21.0039 26.4399 21.0039 27.3675 21.576 27.9395L26.0444 32.408L23.7849 34.6676L21.482 32.3647C20.9101 31.7928 19.9825 31.7928 19.4104 32.3647C18.8384 32.9367 18.8384 33.8643 19.4104 34.4363L21.7133 36.7392L19.4537 38.9987L14.9854 34.5304C14.4134 33.9584 13.4858 33.9584 12.9138 34.5304C12.3417 35.1023 12.3417 36.0299 12.9138 36.6019L17.3821 41.0703L15.1226 43.3299L12.8197 41.0271C12.2478 40.4551 11.3202 40.4551 10.7481 41.0271C10.1761 41.599 10.1761 42.5266 10.7481 43.0986L13.051 45.4015L11.7081 46.7443C11.4979 46.9546 11.2185 47.0703 10.9213 47.0703ZM29.1459 33.4498C29.148 33.4478 29.1499 33.4459 29.152 33.4438C29.154 33.4418 29.156 33.4398 29.1579 33.4378L33.4423 29.1534C33.4429 29.1528 33.4435 29.1523 33.4439 29.1518C33.4444 29.1512 33.445 29.1507 33.4456 29.1501L34.475 28.1207L40.6822 34.3279L34.3279 40.6822L28.1207 34.475L29.1459 33.4498ZM45.7543 45.7543C44.0024 47.5061 41.1519 47.5061 39.4 45.7543L36.3995 42.7537L42.7538 36.3994L45.7544 39.3999C47.5062 41.152 47.5062 44.0024 45.7543 45.7543Z" fill="#906E50" stroke="white" mask="url(#path-1-inside-1_946_155)"/>
</svg>
