<svg width="50" height="54" viewBox="0 0 50 54" fill="none" xmlns="http://www.w3.org/2000/svg">
<path d="M34.3622 22.5502C35.3013 21.6596 35.8841 20.425 35.8841 19.062C35.8841 16.3548 33.5849 14.1524 30.7589 14.1524C28.5813 14.1524 26.6512 15.4751 25.9305 17.4133C25.6285 17.3599 25.3177 17.3306 24.9997 17.3306C24.6817 17.3306 24.3711 17.3599 24.0689 17.4133C23.3482 15.475 21.418 14.1524 19.2405 14.1524C16.4145 14.1524 14.1153 16.3548 14.1153 19.062C14.1153 20.425 14.6983 21.6596 15.6373 22.5502C13.3847 23.7796 11.9346 26.1078 11.9346 28.6398C11.9346 29.0767 12.3042 29.4308 12.7601 29.4308C13.2161 29.4308 13.5857 29.0767 13.5857 28.6398C13.5857 26.4035 15.047 24.3728 17.225 23.5764C17.844 23.8311 18.5253 23.9726 19.2406 23.9726C19.5556 23.9726 19.8676 23.9435 20.1729 23.8895C20.4339 24.5889 20.8555 25.2154 21.3956 25.728C19.1225 26.9611 17.694 29.272 17.694 31.8183C17.694 32.2552 18.0637 32.6093 18.5196 32.6093C18.9755 32.6093 19.3452 32.2552 19.3452 31.8183C19.3452 29.6358 20.7009 27.6761 22.7989 26.8258C22.8551 26.803 22.9069 26.7746 22.9547 26.7423C23.5816 27.0048 24.273 27.1514 24.9997 27.1514C25.7152 27.1514 26.3966 27.0097 27.0157 26.7549C29.1926 27.5513 30.6542 29.5841 30.6542 31.8183C30.6542 32.2552 31.0239 32.6093 31.4798 32.6093C31.9358 32.6093 32.3054 32.2552 32.3054 31.8183C32.3054 29.2886 30.8549 26.9586 28.603 25.7287C29.1434 25.216 29.5654 24.5892 29.8265 23.8895C30.1319 23.9435 30.4438 23.9726 30.7588 23.9726C31.4741 23.9726 32.1554 23.8311 32.7743 23.5764C34.9523 24.3728 36.4136 26.4033 36.4136 28.6398C36.4136 29.0767 36.7832 29.4308 37.2392 29.4308C37.6951 29.4308 38.0647 29.0767 38.0647 28.6398C38.0649 26.1076 36.6148 23.7796 34.3622 22.5502ZM19.875 22.241C19.875 22.2722 19.8768 22.3027 19.8774 22.3336C19.6695 22.3708 19.4565 22.3906 19.2406 22.3906C17.325 22.3906 15.7666 20.8975 15.7666 19.062C15.7666 17.2273 17.325 15.7344 19.2406 15.7344C20.7185 15.7344 22.0276 16.6329 22.5148 17.9486C20.9418 18.7879 19.875 20.397 19.875 22.241ZM21.5261 22.241C21.5261 20.4059 23.0844 18.9128 24.9998 18.9128C26.9153 18.9128 28.4735 20.4058 28.4735 22.241C28.4735 24.0763 26.9153 25.5693 24.9998 25.5693C23.0844 25.5693 21.5261 24.0762 21.5261 22.241ZM30.1221 22.3336C30.1227 22.3027 30.1246 22.2721 30.1246 22.241C30.1246 20.397 29.0577 18.788 27.4847 17.9487C27.9719 16.633 29.281 15.7345 30.7589 15.7345C32.6745 15.7345 34.233 17.2273 34.233 19.0621C34.233 20.8975 32.6745 22.3907 30.7589 22.3907C30.5431 22.3906 30.3301 22.3708 30.1221 22.3336Z" fill="#906E50"/>
<path d="M46.3802 34.1865V19.8082C48.4381 19.4361 49.9999 17.7017 49.9999 15.6235C49.9999 13.2747 48.0056 11.3639 45.5542 11.3639C44.207 11.3639 42.9987 11.9419 42.1828 12.8516L29.1951 5.66654C29.3566 5.22579 29.4456 4.75244 29.4456 4.25937C29.4456 1.91078 27.4513 0 25 0C22.5487 0 20.5543 1.91079 20.5543 4.25948C20.5543 4.75255 20.6432 5.22579 20.8048 5.66665L7.81711 12.8516C7.00122 11.9419 5.79291 11.3639 4.44568 11.3639C1.99426 11.3639 0 13.2747 0 15.6235C0 17.7017 1.56177 19.436 3.61966 19.8082V34.1865C1.56177 34.5586 0 36.2929 0 38.3712C0 40.72 1.99426 42.6307 4.44568 42.6307C5.79081 42.6307 6.99737 42.0546 7.81326 41.1473L20.8046 48.3337C20.6432 48.7743 20.5543 49.2476 20.5543 49.7404C20.5543 52.0892 22.5486 54 25 54C27.4514 54 29.4457 52.0892 29.4457 49.7404C29.4457 49.2476 29.3568 48.7743 29.1954 48.3337L42.1867 41.1473C43.0026 42.0547 44.2092 42.6307 45.5543 42.6307C48.0057 42.6307 50 40.72 50 38.3712C49.9999 36.2928 48.438 34.5586 46.3802 34.1865ZM45.5542 12.9459C47.0951 12.9459 48.3487 14.1471 48.3487 15.6235C48.3487 17.0998 47.0951 18.301 45.5542 18.301C44.0134 18.301 42.7597 17.0998 42.7597 15.6235C42.7597 14.1471 44.0134 12.9459 45.5542 12.9459ZM25 1.58204C26.5409 1.58204 27.7945 2.78312 27.7945 4.25948C27.7945 5.73446 26.5432 6.9347 25.0043 6.93692C25.0029 6.93692 25.0014 6.93671 25 6.93671C24.9986 6.93671 24.9971 6.93692 24.9957 6.93692C23.4568 6.9347 22.2055 5.73446 22.2055 4.25948C22.2055 2.78312 23.459 1.58204 25 1.58204ZM1.65115 15.6235C1.65115 14.1471 2.90482 12.9459 4.44568 12.9459C5.98653 12.9459 7.2402 14.1471 7.2402 15.6235C7.2402 17.0998 5.98653 18.301 4.44568 18.301C2.90482 18.301 1.65115 17.0998 1.65115 15.6235ZM4.44568 41.0486C2.90482 41.0486 1.65115 39.8474 1.65115 38.3711C1.65115 36.8947 2.90482 35.6935 4.44568 35.6935C5.98653 35.6935 7.2402 36.8947 7.2402 38.3711C7.2402 39.8474 5.98653 41.0486 4.44568 41.0486ZM25 52.4179C23.4591 52.4179 22.2055 51.2167 22.2055 49.7403C22.2055 48.264 23.4591 47.0628 25 47.0628C26.5409 47.0628 27.7945 48.264 27.7945 49.7403C27.7945 51.2167 26.5409 52.4179 25 52.4179ZM28.3678 46.9646C27.7231 46.2474 26.8342 45.7379 25.8255 45.5556V42.5082C25.8255 42.0712 25.4558 41.7172 24.9999 41.7172C24.544 41.7172 24.1743 42.0712 24.1743 42.5082V45.5556C23.1657 45.738 22.2768 46.2474 21.632 46.9646L8.64081 39.7783C8.80241 39.3375 8.89124 38.8642 8.89124 38.3712C8.89124 37.8777 8.80219 37.4039 8.64037 36.9627L11.3956 35.4382C11.7904 35.2196 11.9256 34.7358 11.6976 34.3575C11.4697 33.9792 10.9648 33.8498 10.5698 34.0681L7.81216 35.5941C7.16744 34.8775 6.27889 34.3685 5.2707 34.1864V19.8083C6.27923 19.6261 7.16799 19.1168 7.81271 18.3999L10.5741 19.9279C10.7041 19.9998 10.8461 20.034 10.9862 20.034C11.2714 20.034 11.5489 19.8921 11.7018 19.6385C11.9299 19.2601 11.7946 18.7763 11.3998 18.5578L8.64048 17.0311C8.80208 16.5901 8.89102 16.1166 8.89102 15.6235C8.89102 15.1324 8.80285 14.661 8.64247 14.2217L21.632 7.03553C22.2767 7.75251 23.1655 8.26193 24.174 8.44418V11.4919C24.174 11.9289 24.5436 12.2829 24.9996 12.2829C25.4555 12.2829 25.8251 11.9289 25.8251 11.4919V8.44418C26.8337 8.26193 27.7224 7.75251 28.3671 7.03553L41.3567 14.2217C41.1964 14.661 41.1081 15.1324 41.1081 15.6235C41.1081 16.1166 41.197 16.5901 41.3586 17.0311L38.5993 18.5578C38.2045 18.7763 38.0692 19.2601 38.2973 19.6385C38.4502 19.8921 38.7277 20.034 39.0129 20.034C39.1529 20.034 39.295 19.9998 39.425 19.9279L42.1864 18.3999C42.8312 19.1168 43.72 19.6261 44.7284 19.8083V34.1864C43.7202 34.3685 42.8318 34.8775 42.187 35.5941L39.4293 34.0681C39.0345 33.85 38.5295 33.9792 38.3015 34.3575C38.0734 34.7358 38.2087 35.2196 38.6035 35.4382L41.3587 36.9627C41.1969 37.4039 41.1079 37.8777 41.1079 38.3712C41.1079 38.8642 41.1967 39.3376 41.3583 39.7783L28.3678 46.9646ZM45.5542 41.0486C44.0134 41.0486 42.7597 39.8474 42.7597 38.3711C42.7597 36.8947 44.0134 35.6935 45.5542 35.6935C47.0951 35.6935 48.3487 36.8947 48.3487 38.3711C48.3487 39.8474 47.0951 41.0486 45.5542 41.0486Z" fill="#906E50"/>
<path d="M31.9153 35.1729H29.4584C29.0024 35.1729 28.6328 35.527 28.6328 35.9639C28.6328 36.4009 29.0024 36.7549 29.4584 36.7549H31.9153C32.3712 36.7549 32.7409 36.4009 32.7409 35.9639C32.7409 35.527 32.3712 35.1729 31.9153 35.1729Z" fill="#906E50"/>
<path d="M31.915 38.2711H18.0853C17.6294 38.2711 17.2598 38.6251 17.2598 39.0621C17.2598 39.499 17.6294 39.8531 18.0853 39.8531H31.9151C32.371 39.8531 32.7407 39.499 32.7407 39.0621C32.7407 38.6251 32.3709 38.2711 31.915 38.2711Z" fill="#906E50"/>
<path d="M18.0853 36.7549H18.0968C18.5527 36.7549 18.9224 36.4009 18.9224 35.9639C18.9224 35.527 18.5527 35.1729 18.0968 35.1729H18.0853C17.6294 35.1729 17.2598 35.527 17.2598 35.9639C17.2598 36.4009 17.6294 36.7549 18.0853 36.7549Z" fill="#906E50"/>
<path d="M20.9562 36.7549C21.4121 36.7549 21.7817 36.4009 21.7817 35.9639C21.7817 35.527 21.4121 35.1729 20.9562 35.1729H20.9447C20.4888 35.1729 20.1191 35.527 20.1191 35.9639C20.1191 36.4009 20.4888 36.7549 20.9447 36.7549H20.9562Z" fill="#906E50"/>
<path d="M23.8155 36.7549C24.2715 36.7549 24.6411 36.4009 24.6411 35.9639C24.6411 35.527 24.2715 35.1729 23.8155 35.1729H23.8041C23.3482 35.1729 22.9785 35.527 22.9785 35.9639C22.9785 36.4009 23.3482 36.7549 23.8041 36.7549H23.8155Z" fill="#906E50"/>
</svg>
