<svg width="52" height="58" viewBox="0 0 52 58" fill="none" xmlns="http://www.w3.org/2000/svg">
<path d="M24.4018 57H5.68037C3.09552 57 1 54.9193 1 52.3527V19.0054C1 17.3525 1.88412 15.824 3.32205 14.9912L15.0411 8.20332L26.7601 14.9912C28.1981 15.824 29.0822 17.3525 29.0822 19.0054V52.3527C29.0822 54.9193 26.9867 57 24.4018 57Z" stroke="#906E50" stroke-width="2" stroke-miterlimit="10" stroke-linecap="round" stroke-linejoin="round"/>
<path d="M28.0336 55.2506C29.3883 55.9133 31.0395 55.9158 32.4455 55.1098L48.6587 45.8152C50.8973 44.5318 51.6643 41.6897 50.3719 39.4669L33.5795 10.5872C32.7472 9.15575 31.2118 8.27102 29.5473 8.26359L15.048 8.19911L15.0449 8.20573" stroke="#906E50" stroke-width="2" stroke-miterlimit="10" stroke-linecap="round" stroke-linejoin="round"/>
<path d="M19.0243 27.3184C18.7089 26.9588 16.7572 25.2421 13.2627 26.2874C10.054 27.2472 9.257 31.6066 11.4376 33.3047C12.6896 34.2797 14.5734 35.0815 17.1124 35.9726C22.7951 37.9671 20.6944 45.9245 14.914 45.9627C12.6582 45.9776 11.6036 45.8354 9.62207 44.5483" stroke="#906E50" stroke-width="2" stroke-miterlimit="10" stroke-linecap="round" stroke-linejoin="round"/>
<path d="M14.9141 23.307V48.8672" stroke="#906E50" stroke-width="2" stroke-miterlimit="10" stroke-linecap="round" stroke-linejoin="round"/>
<path d="M15.041 15.1743V1.00004" stroke="#906E50" stroke-width="2" stroke-miterlimit="10" stroke-linecap="round" stroke-linejoin="round"/>
</svg>
